<svg xmlns="http://www.w3.org/2000/svg" width="555" height="417" viewBox="0 0 555 417">
    <g fill="none" fill-rule="evenodd">
        <g fill="#63AEFF" fill-rule="nonzero">
            <path d="M198.216 91.895V88.69c0-13.501-11.919-24.429-26.686-24.429h-46.357c-14.714 0-26.686-10.927-26.686-24.428 0-13.502 11.92-24.429 26.686-24.429h218.602c14.714 0 26.686 10.927 26.686 24.429 0 13.501 11.919 24.428 26.685 24.428h48.098c14.714 0 26.686 10.928 26.686 24.429v3.205c0 13.501-11.92 24.428-26.686 24.428H312.343c-14.715 0-26.686 10.927-26.686 24.429 0 14.29 11.919 25.216 26.686 25.216h49.838c14.714 0 26.685 10.928 26.685 24.43 0 14.289 11.92 25.216 26.686 25.216h46.358c14.714 0 26.685 10.927 26.685 24.428v3.205c0 13.501-11.919 24.429-26.685 24.429h-26.212c-14.714 0-26.685 10.927-26.685 24.428v1.576c0 13.502-11.92 24.429-26.686 24.429H160.19c-14.714 0-26.685-10.927-26.685-24.429v-1.576c0-13.501 11.919-24.428 26.685-24.428h24.471c14.714 0 26.686-10.928 26.686-24.43v-3.204c0-13.501-11.919-24.428-26.686-24.428h-40.24c-14.714 0-26.685-10.927-26.685-24.429 0-14.29-11.92-25.217-26.686-25.217H43.85c-14.714 0-26.686-10.927-26.686-24.428 0-14.29 11.919-25.217 26.686-25.217h127.68c14.767 0 26.686-10.927 26.686-24.428z" opacity=".205"/>
            <path d="M455.897 153.465c0-2.732 2.215-4.886 4.905-4.886h41.4a4.886 4.886 0 0 1 4.905 4.886c0 2.732-2.215 4.886-4.905 4.886h-3.006a4.886 4.886 0 0 0-4.905 4.886v.788c0 2.731 2.215 4.885 4.905 4.885h24.101a4.886 4.886 0 0 1 4.905 4.886c0 2.732-2.215 4.886-4.905 4.886h-41.4a4.886 4.886 0 0 1-4.904-4.886c0-2.732 2.215-4.886 4.904-4.886h1.477a4.886 4.886 0 0 0 4.905-4.885v-.788c0-2.732-2.215-4.886-4.905-4.886h-22.572c-2.742 0-4.905-2.154-4.905-4.886zM455.58 178.787h7.332a4.886 4.886 0 0 0 4.904-4.886c0-2.732-2.215-4.886-4.904-4.886h-7.331a4.886 4.886 0 0 0-4.905 4.886c0 2.68 2.215 4.886 4.905 4.886zM505.419 290.16h5.907a4.942 4.942 0 0 0 4.957-4.938 4.942 4.942 0 0 0-4.957-4.938h-5.907a4.942 4.942 0 0 0-4.957 4.938 4.942 4.942 0 0 0 4.957 4.938zM129.761 246.924h27.002a4.942 4.942 0 0 0 4.958-4.938 4.942 4.942 0 0 0-4.958-4.938h-27.002a4.942 4.942 0 0 0-4.957 4.938 4.942 4.942 0 0 0 4.957 4.938zM164.832 232.11h5.907a4.942 4.942 0 0 0 4.958-4.939 4.942 4.942 0 0 0-4.958-4.938h-5.907a4.942 4.942 0 0 0-4.957 4.938 4.942 4.942 0 0 0 4.957 4.939zM527.147 255.488h7.964c10.97 0 19.882-8.879 19.882-19.806 0-10.927-8.913-19.806-19.882-19.806h-7.964c-10.97 0-19.882 8.879-19.882 19.806 0 10.927 8.86 19.806 19.882 19.806zM72.75 216.507c0 2.732-2.162 4.886-4.904 4.938l-41.4.158c-2.742 0-4.905-2.154-4.957-4.886 0-2.732 2.162-4.886 4.904-4.938H29.4c2.743 0 4.905-2.207 4.905-4.939v-.788c0-2.731-2.215-4.885-4.957-4.885l-24.102.105c-2.742 0-4.905-2.154-4.957-4.886 0-2.732 2.162-4.886 4.904-4.938l41.4-.158c2.743 0 4.905 2.154 4.958 4.886 0 2.732-2.163 4.886-4.905 4.938h-1.477c-2.742 0-4.904 2.207-4.904 4.938v.788c0 2.732 2.215 4.886 4.957 4.886l22.572-.052c2.743-.053 4.958 2.154 4.958 4.833zM72.962 191.238H65.63c-2.742 0-4.905 2.206-4.905 4.938 0 2.732 2.215 4.886 4.958 4.886h7.33c2.743 0 4.905-2.207 4.905-4.939a4.965 4.965 0 0 0-4.957-4.885z" opacity=".2"/>
        </g>
        <path fill="#111" fill-rule="nonzero" d="M292.8 416.16c32.72 0 101.034-6.052 101.034-6.052s-9.26-3.094-55.636-3.094c-52.92 0-105.735 1.294-123.242 3.094-1.852.19-4.193 2.592-3.801 4.804 1.802 1.247 27.767 1.247 48.768 1.247H292.8z" opacity=".12"/>
        <path fill="#63AEFF" d="M244.167 415.348H233.49l-6.163-114.974h23.09zM291.997 300.374l-6.25 114.974H275.07l-6.25-114.974"/>
        <path fill="#585F73" d="M227.413 405.407c-8.507 0-15.451 4.322-16.666 9.941h33.246c-1.128-5.619-8.073-9.941-16.58-9.941zM275.07 415.348h33.246c-1.128-5.619-8.073-9.941-16.58-9.941-8.506 0-15.45 4.322-16.666 9.941z"/>
        <path fill="#63AEFF" d="M359.705 163.356l-13.368 30.775c-.78 1.815-3.211 2.247-4.6.864l-33.507-33.628-11.372 11.325 50.781 47.2c1.39 1.296 3.646.864 4.514-.865l22.223-49.274-14.67-6.397z" opacity=".12"/>
        <path fill="#FAD6B1" d="M365.3 152.222l13.863 6.208-6.182 13.806-13.864-6.208z"/>
        <path fill="#FAD6B1" d="M369.254 156.008l-4.6-2.075 6.163-13.832c.607-1.296 2.083-1.815 3.385-1.296 1.302.605 1.823 2.074 1.302 3.371l-6.25 13.832z"/>
        <path fill="#FAD6B1" d="M369.08 168.629l-4.6-2.075 6.163-13.831c.608-1.297 2.083-1.816 3.385-1.297 1.303.605 1.823 2.075 1.303 3.371l-6.25 13.832zM373.768 170.704l-4.6-2.075 5.729-12.794c.607-1.297 2.083-1.816 3.385-1.297 1.302.605 1.823 2.075 1.302 3.371l-5.816 12.795z"/>
        <path fill="#EBAC91" d="M359.88 160.849v-.26c.086-1.642 1.562-2.853 3.21-2.766l8.247.605c1.216.087 2.084 1.124 1.997 2.334v.26c-.087 1.21-1.128 2.074-2.344 1.988l-9.896-.692c-.694-.086-1.215-.691-1.215-1.47z"/>
        <path fill="#B0D0F0" d="M359.705 163.356l-13.368 30.861c-.78 1.815-3.125 2.248-4.514.865l-33.507-33.715-11.371 11.325 50.868 47.286c1.389 1.297 3.646.865 4.427-.864l22.222-49.361-14.757-6.397z"/>
        <path fill="#EEFAFF" d="M208.837 300.374V166.986c0-8.904 7.292-16.165 16.233-16.165h68.055c8.941 0 16.233 7.261 16.233 16.165v133.388H208.837z"/>
        <path fill="#B0D0F0" d="M293.125 150.82h-34.027v149.554h50.26V166.986c0-8.904-7.292-16.165-16.233-16.165z"/>
        <path fill="#63AEFF" d="M265.174 184.967l-6.076 4.755-6.077-4.755 3.299-27.836h5.555z"/>
        <g fill="#A2BAD6">
            <path d="M286.007 166.64h-14.583l7.812-15.82h6.771z"/>
            <path d="M259.098 190.413v-3.112l12.847-21.957 12.673 7.348z"/>
        </g>
        <path fill="#63AEFF" d="M261.788 161.194h-5.555l-3.299-4.927h12.153z"/>
        <g fill="#DADBDA">
            <path d="M233.663 165.776h14.67l-7.812-15.82h-6.858z"/>
            <path d="M259.098 190.413v-3.112l-11.285-22.822-12.674 7.348z"/>
        </g>
        <path fill="#8E99AC" d="M213.203 224.668l38.212 16.831-21.814 49.527-38.213-16.83z"/>
        <path fill="#585F73" d="M233.964 239.943l10.645 4.69-17.284 39.24-10.645-4.688zM213.233 224.72l1.51.664-21.815 49.527-1.509-.665z"/>
        <path fill="#FAD6B1" d="M227.327 260.781c.868-.95.868-2.42-.087-3.285l-8.073-7.694 3.212 1.643c1.128.605 2.517.086 3.125-1.038.607-1.123.086-2.506-1.042-3.112l-7.9-3.976-11.718-7.867-8.334 9.423 9.81 10.892 10.677 10.114a2.028 2.028 0 0 0 2.777-.086 2.007 2.007 0 0 0-.086-2.766l2.343 2.16c.955.865 2.431.865 3.299-.086.868-.95.868-2.42-.087-3.285l-1.128-1.037c.781.951 2.257.865 3.212 0z"/>
        <path fill="#EEFAFF" d="M223.941 168.715l-13.889-7.953-33.42 57.574c-1.215 2.074-.955 4.668.694 6.483l27.084 29.133 11.805-10.893-19.01-20.487c-1.65-1.73-1.91-4.41-.695-6.484l27.431-47.373z"/>
        <path fill="#DADBDA" d="M197.552 247.43l12.672-11.739 6.402 6.913-12.672 11.737zM359.056 162.828l15.854 6.858-3.741 8.648-15.854-6.858z"/>
        <path fill="#A2BAD6" d="M359.056 162.828l15.854 6.858-3.741 8.648-15.854-6.858z"/>
        <path fill="#FAD6B1" d="M359.792 161.021c.087-1.642 1.563-2.852 3.212-2.766l8.247.605c1.215.087 2.083 1.124 1.996 2.334-.087 1.21-1.128 2.075-2.344 1.989l-9.895-.692c-.695 0-1.303-.692-1.216-1.47z"/>
        <g transform="rotate(18 59.777 699.563)">
            <path fill="#1CB4CC" fill-rule="nonzero" d="M78.242 120.327h-5.72l-3.41-4.935h12.43z"/>
            <path fill="#878786" fill-rule="nonzero" d="M89.022 51.78c-.55-4.058.33-8.007 2.09-11.297-2.31-1.974-4.07-4.716-4.4-8.006-.88-6.69 3.96-12.832 10.67-13.71 6.71-.877 12.87 3.948 13.75 10.639v.658c8.47 1.206 15.51 8.006 16.61 16.89 1.32 10.638-6.27 20.4-16.94 21.716-10.67 1.316-20.46-6.252-21.78-16.89zM36.882 68.45c-1.98-3.619-4.84-6.251-8.25-8.006.77-2.961.55-6.142-1.1-9.103-3.3-5.923-10.78-8.116-16.72-4.936-5.94 3.29-8.14 10.749-4.95 16.671.11.22.22.439.33.549-6.27 5.922-7.92 15.464-3.63 23.36 5.17 9.433 16.94 12.942 26.4 7.787 9.57-5.045 13.09-16.89 7.92-26.322z"/>
            <path fill="#FAD6B1" fill-rule="nonzero" d="M44.362 2.206c-19.36 6.142-32.01 24.238-34.32 45.296l16.83 52.316c14.19 15.903 34.98 23.141 54.34 17 19.36-6.143 32.01-24.239 34.32-45.297l-16.83-52.315c-14.19-15.793-34.98-23.142-54.34-17z"/>
            <path fill="#9D9D9C" fill-rule="nonzero" d="M95.952 15.477c-1.76-1.097-3.74-1.316-5.72 0l15.62 48.696-2.2.768c-6.27 1.974-9.57 9.432-7.26 16.451l-16.17.548c-6.6.22-12.98 2.304-18.48 5.923l-13.53 8.993c-2.31-7.129-9.24-11.187-15.51-9.212l-2.2.767-15.62-48.696c-2.31.11-3.85 1.426-4.62 3.29-.77 1.975-.77 4.278-.11 6.471l18.26 56.703c1.43 4.606 4.07 8.664 7.59 11.735 9.02 7.677 22.33 8.335 45.98.768 23.65-7.568 34.1-15.903 36.96-27.31 1.1-4.496.77-9.322-.66-13.928l-18.26-56.703c-.99-2.193-2.31-4.167-4.07-5.264z"/>
            <path fill="#EBAC91" fill-rule="nonzero" d="M73.402 79.747l-7.59 2.413c-1.98.658-4.07-.658-4.51-2.742l-2.31-14.258c-.22-1.645.77-3.29 2.31-3.839l3.41-1.096c1.65-.549 3.41.219 4.18 1.754l6.49 12.942c.99 1.865.11 4.168-1.98 4.826z"/>
            <path fill="#878786" fill-rule="nonzero" d="M45.572 46.954L30.392 58.14l-3.3-5.374 16.94-8.336zM69.552 39.386l18.81.22-.44-6.252-18.59 2.961z"/>
            <path fill="#EBAC91" fill-rule="nonzero" d="M12.902 86.656c1.43 4.497 6.27 7.02 10.78 5.594l-5.17-16.342c-4.51 1.426-7.04 6.252-5.61 10.748zM119.161 52.767c1.43 4.496-.99 9.322-5.5 10.748l-5.28-16.342c4.4-1.426 9.24 1.097 10.78 5.594z"/>
            <path stroke="#3C3E3C" stroke-linecap="round" d="M66.692 99.27s10.45 0 18.7-5.923"/>
            <ellipse cx="78.925" cy="53.869" fill="#3C3E3C" fill-rule="nonzero" rx="4.4" ry="4.387" transform="rotate(-33.994 78.925 53.869)"/>
            <ellipse cx="45.552" cy="63.956" fill="#3C3E3C" fill-rule="nonzero" rx="4.4" ry="4.387" transform="rotate(-33.994 45.552 63.956)"/>
            <g transform="rotate(-2.388 1574.057 -795.86)">
                <ellipse cx="14.171" cy="14.681" fill="#B2DAEA" fill-rule="nonzero" opacity=".32" rx="13.529" ry="13.49"/>
                <ellipse cx="14.171" cy="14.681" stroke="#3C3E3C" stroke-width="2" rx="13.529" ry="13.49"/>
            </g>
            <path fill="#3C3E3C" fill-rule="nonzero" d="M35.672 83.366l-1.21-4.606c-.22-.987-1.1-1.645-2.09-1.645l-14.85-5.155-.77-2.194s11.77 4.497 15.29 3.51c3.19-.768 8.36-6.032 9.79-6.361l-4.51 5.703-1.65 10.748z"/>
            <g>
                <g transform="rotate(-36.186 125.292 -57.464)">
                    <ellipse cx="19.13" cy="19.507" fill="#B2DAEA" fill-rule="nonzero" opacity=".32" rx="13.53" ry="13.49"/>
                    <ellipse cx="19.13" cy="19.507" stroke="#3C3E3C" stroke-width="2" rx="13.53" ry="13.49"/>
                </g>
                <path fill="#3C3E3C" fill-rule="nonzero" d="M98.482 62.308l-1.98-4.387c-.44-.877-.11-1.974.66-2.632l10.01-12.283-.88-2.633s-7.92 10.2-11.33 11.626c-2.97 1.316-10.34.439-11.66 1.097l7.15 1.645 8.03 7.567z"/>
            </g>
        </g>
        <g fill-rule="nonzero">
            <path fill="#FF525D" d="M391.665.033C373.08.431 357.866 15.48 357.28 34.061a35.052 35.052 0 0 0 8.531 24.126c2.503 2.896 3.217 6.931 1.93 10.535l-2.314 6.48c-.753 2.107 1.688 3.908 3.48 2.568l8.207-6.138c2.442-1.827 5.543-2.506 8.535-1.917 3.115.614 6.378.817 9.733.54 17.652-1.461 31.573-16.06 32.208-33.761.727-20.275-15.713-36.893-35.924-36.46z"/>
            <path fill="#FFD15C" d="M471.73 90.55c-2.978 3.592-3.922 8.447-2.354 12.839l1.112 3.116c2.582 5.48-1.112 6.573-4.45 4.666l-6.911-5.163a13.038 13.038 0 0 0-10.18-2.372c-2.307.432-4.889.813-6.764.813-21.183 0-38.353-17.17-38.353-38.353-.003-21.162 17.188-38.354 38.353-38.354 21.18 0 38.353 17.17 38.353 38.354a38.201 38.201 0 0 1-8.807 24.454z"/>
            <g fill="#FFF">
                <path d="M447.597 87.312c0 2.901-2.477 5.45-5.379 5.45-3.114 0-5.45-2.549-5.45-5.45 0-2.974 2.336-5.45 5.45-5.45 2.902 0 5.38 2.477 5.38 5.45zm-1.344-13.449c0 2.195-2.407 3.115-4.106 3.115-2.265 0-4.176-.92-4.176-3.115 0-8.423-.99-20.526-.99-28.95 0-2.76 2.265-4.317 5.166-4.317 2.761 0 5.097 1.557 5.097 4.318 0 8.423-.991 20.526-.991 28.95zM398.474 33.83c-3.57 2.791-3.636 4.74-3.636 8.115 0 1.233-.649 2.661-3.83 2.661-2.661 0-3.57-.974-3.57-4.35 0-5.582 2.467-8.244 4.35-9.867 2.142-1.817 5.777-3.83 5.777-7.335 0-2.986-2.597-4.415-5.843-4.415-6.62 0-5.193 4.999-8.698 4.999-1.753 0-3.895-1.168-3.895-3.7 0-3.506 4.025-8.7 12.788-8.7 8.31 0 13.827 4.61 13.827 10.712 0 6.102-5.517 10.517-7.27 11.88zm-2.402 20.254c0 2.661-2.208 4.999-4.999 4.999-2.79 0-4.934-2.338-4.934-4.999 0-2.726 2.208-4.999 4.934-4.999s4.999 2.273 4.999 5z"/>
            </g>
        </g>
    </g>
</svg>
