<svg width="1360" height="889" viewBox="0 0 1360 889" fill="none" xmlns="http://www.w3.org/2000/svg">
<mask id="mask0" mask-type="alpha" maskUnits="userSpaceOnUse" x="0" y="0" width="1360" height="889">
<rect width="1360" height="889" fill="url(#paint0_linear)"/>
</mask>
<g mask="url(#mask0)">
<g opacity="0.2">
<path d="M-187 277.074C318.96 21.6868 372.587 1483.9 1486.6 209.471" stroke="white" stroke-miterlimit="10" stroke-linecap="round" stroke-linejoin="round"/>
<path d="M-185.668 297.605C336.614 1.82349 403.731 1470.05 1491.1 236.178" stroke="white" stroke-width="0.9758" stroke-miterlimit="10" stroke-linecap="round" stroke-linejoin="round"/>
<path d="M-184.502 318.136C354.268 -18.2064 434.542 1456.03 1495.26 262.886" stroke="white" stroke-width="0.9516" stroke-miterlimit="10" stroke-linecap="round" stroke-linejoin="round"/>
<path d="M-183.169 338.667C372.088 -38.0697 465.685 1442.17 1499.76 289.426" stroke="white" stroke-width="0.9274" stroke-miterlimit="10" stroke-linecap="round" stroke-linejoin="round"/>
<path d="M-181.838 359.365C389.741 -57.7668 496.829 1428.48 1504.09 316.3" stroke="white" stroke-width="0.9032" stroke-miterlimit="10" stroke-linecap="round" stroke-linejoin="round"/>
<path d="M-180.672 379.896C407.395 -77.7968 527.639 1414.63 1508.25 343.007" stroke="white" stroke-width="0.879" stroke-miterlimit="10" stroke-linecap="round" stroke-linejoin="round"/>
<path d="M-179.34 400.427C425.214 -97.6602 558.783 1400.78 1512.75 369.714" stroke="white" stroke-width="0.8548" stroke-miterlimit="10" stroke-linecap="round" stroke-linejoin="round"/>
<path d="M-178.006 421.126C443.036 -117.523 589.928 1387.09 1517.08 396.588" stroke="white" stroke-width="0.8306" stroke-miterlimit="10" stroke-linecap="round" stroke-linejoin="round"/>
<path d="M-176.841 441.656C460.522 -137.387 620.737 1373.23 1521.24 423.128" stroke="white" stroke-width="0.8065" stroke-miterlimit="10" stroke-linecap="round" stroke-linejoin="round"/>
<path d="M-175.508 462.188C478.343 -157.25 651.882 1359.38 1525.74 449.836" stroke="white" stroke-width="0.7823" stroke-miterlimit="10" stroke-linecap="round" stroke-linejoin="round"/>
<path d="M-174.176 482.718C496.163 -177.281 683.026 1345.36 1530.07 476.542" stroke="white" stroke-width="0.7581" stroke-miterlimit="10" stroke-linecap="round" stroke-linejoin="round"/>
<path d="M-173.01 503.416C513.651 -196.978 713.836 1331.67 1534.23 503.416" stroke="white" stroke-width="0.7339" stroke-miterlimit="10" stroke-linecap="round" stroke-linejoin="round"/>
<path d="M-171.678 523.948C531.471 -216.841 744.98 1317.82 1538.73 530.124" stroke="white" stroke-width="0.7097" stroke-miterlimit="10" stroke-linecap="round" stroke-linejoin="round"/>
<path d="M-170.346 544.478C549.291 -236.872 776.123 1303.96 1543.06 556.83" stroke="white" stroke-width="0.6855" stroke-miterlimit="10" stroke-linecap="round" stroke-linejoin="round"/>
<path d="M-169.179 565.177C566.778 -256.567 806.935 1290.27 1547.22 583.538" stroke="white" stroke-width="0.6613" stroke-miterlimit="10" stroke-linecap="round" stroke-linejoin="round"/>
<path d="M-167.847 585.708C584.598 -276.431 838.078 1276.42 1551.72 610.245" stroke="white" stroke-width="0.6371" stroke-miterlimit="10" stroke-linecap="round" stroke-linejoin="round"/>
<path d="M-166.516 606.239C602.251 -296.461 869.054 1262.57 1556.05 636.952" stroke="white" stroke-width="0.6129" stroke-miterlimit="10" stroke-linecap="round" stroke-linejoin="round"/>
<path d="M-165.349 626.77C619.905 -316.325 900.032 1248.54 1560.21 663.659" stroke="white" stroke-width="0.5887" stroke-miterlimit="10" stroke-linecap="round" stroke-linejoin="round"/>
<path d="M-164.018 647.468C637.725 -336.188 931.175 1234.86 1564.71 690.533" stroke="white" stroke-width="0.5645" stroke-miterlimit="10" stroke-linecap="round" stroke-linejoin="round"/>
<path d="M-162.685 667.999C655.545 -356.051 962.319 1221 1569.04 717.074" stroke="white" stroke-width="0.5403" stroke-miterlimit="10" stroke-linecap="round" stroke-linejoin="round"/>
<path d="M-161.519 688.531C673.199 -375.915 993.296 1207.15 1573.37 743.781" stroke="white" stroke-width="0.5161" stroke-miterlimit="10" stroke-linecap="round" stroke-linejoin="round"/>
<path d="M-160.187 709.228C690.852 -395.778 1024.27 1193.46 1577.7 770.655" stroke="white" stroke-width="0.4919" stroke-miterlimit="10" stroke-linecap="round" stroke-linejoin="round"/>
<path d="M-158.854 729.759C708.674 -415.642 1055.42 1179.61 1582.03 797.361" stroke="white" stroke-width="0.4677" stroke-miterlimit="10" stroke-linecap="round" stroke-linejoin="round"/>
<path d="M-157.689 750.291C726.326 -435.505 1086.39 1165.75 1586.19 824.069" stroke="white" stroke-width="0.4435" stroke-miterlimit="10" stroke-linecap="round" stroke-linejoin="round"/>
<path d="M-156.355 770.821C743.981 -455.536 1117.37 1151.73 1590.69 850.609" stroke="white" stroke-width="0.4194" stroke-miterlimit="10" stroke-linecap="round" stroke-linejoin="round"/>
<path d="M-155.023 791.52C761.801 -475.232 1148.52 1138.04 1595.02 877.483" stroke="white" stroke-width="0.3952" stroke-miterlimit="10" stroke-linecap="round" stroke-linejoin="round"/>
<path d="M-153.857 812.051C779.455 -495.095 1179.49 1124.19 1599.35 904.19" stroke="white" stroke-width="0.371" stroke-miterlimit="10" stroke-linecap="round" stroke-linejoin="round"/>
<path d="M-152.525 832.581C797.108 -515.126 1210.47 1110.34 1603.68 930.897" stroke="white" stroke-width="0.3468" stroke-miterlimit="10" stroke-linecap="round" stroke-linejoin="round"/>
<path d="M-151.193 853.28C814.928 -534.822 1241.61 1096.65 1608.01 957.771" stroke="white" stroke-width="0.3226" stroke-miterlimit="10" stroke-linecap="round" stroke-linejoin="round"/>
<path d="M-150.027 873.811C832.582 -554.852 1272.59 1082.79 1612.17 984.312" stroke="white" stroke-width="0.2984" stroke-miterlimit="10" stroke-linecap="round" stroke-linejoin="round"/>
<path d="M-148.695 894.342C850.235 -574.716 1303.57 1068.94 1616.67 1011.02" stroke="white" stroke-width="0.2742" stroke-miterlimit="10" stroke-linecap="round" stroke-linejoin="round"/>
<path d="M-147.363 914.873C868.055 -594.579 1334.71 1055.09 1621 1037.73" stroke="white" stroke-width="0.25" stroke-miterlimit="10" stroke-linecap="round" stroke-linejoin="round"/>
</g>
</g>
<defs>
<linearGradient id="paint0_linear" x1="-1.29645e-05" y1="0.000279358" x2="1401.49" y2="817.913" gradientUnits="userSpaceOnUse">
<stop stop-color="#DD4200"/>
<stop offset="1" stop-color="#FF8D06"/>
</linearGradient>
</defs>
</svg>
