<?xml version="1.0" encoding="UTF-8"?>
<svg width="480px" height="122px" viewBox="0 0 480 122" version="1.1" xmlns="http://www.w3.org/2000/svg" xmlns:xlink="http://www.w3.org/1999/xlink">
    <!-- Generator: Sketch 45.2 (43514) - http://www.bohemiancoding.com/sketch -->
    <title>Group 7</title>
    <desc>Created with Sketch.</desc>
    <defs></defs>
    <g id="Page-6" stroke="none" stroke-width="1" fill="none" fill-rule="evenodd">
        <g id="2Реформа-для-пациентов_1170рх" transform="translate(-606.000000, -722.000000)">
            <g id="Group-7" transform="translate(606.000000, 723.000000)">
                <polygon id="Triangle-Copy-4" stroke="#63AEFF" fill="#63AEFF" points="157 59.5399236 143 71.0798472 143 48"></polygon>
                <polygon id="Triangle-Copy-5" stroke="#63AEFF" fill="#63AEFF" transform="translate(330.000000, 59.539924) rotate(-180.000000) translate(-330.000000, -59.539924) " points="337 59.5399236 323 71.0798472 323 48"></polygon>
                <g id="girl-(3)" fill-rule="nonzero">
                    <path d="M60,119.999766 C93.0464063,119.999766 120,93.046875 120,60.0004687 C120,26.9533594 93.0471094,0.00046875 60,0.00046875 C26.9528906,0.00046875 0,26.9533594 0,60.0002344 C0,93.0466406 26.9528906,119.999766 60,119.999766 Z" id="Shape" fill="#FAD24D"></path>
                    <path d="M39.96375,70.7807813 C34.9603125,58.1578125 24.4502344,46.7339062 37.6755469,23.7227344 C43.1224219,14.2455469 51.4425,7.99523437 60.0375,10.1114062 C68.6325,7.99546875 76.9525781,14.2457812 82.3994531,23.7227344 C95.6242969,46.7339062 85.1149219,58.1578125 80.1107812,70.7807813 L60.0382031,70.8304687 L39.9644531,70.7807813 L39.96375,70.7807813 Z" id="Shape" fill="#666666"></path>
                    <path d="M26.2286719,90.5139844 C25.6010156,91.5271875 24.0351562,100.143516 22.3033594,106.676016 C32.6060156,115.006641 45.7190625,119.999062 59.9992969,119.999062 C74.2802344,119.999062 87.3930469,115.006641 97.6957031,106.676016 C95.9632031,100.144219 94.3975781,91.5264844 93.7699219,90.5139844 C84.1310156,74.9500781 69.2735156,81.744375 68.2605469,63.9342187 C68.2605469,63.9342187 63.4807031,67.5011719 59.8310156,67.53375 C56.1810938,67.5663281 51.7333594,64.1592187 51.7333594,64.1592187 C50.7227344,81.9539062 35.8607813,74.9617969 26.2286719,90.5139844 Z" id="Shape" fill="#FED198"></path>
                    <path d="M68.5192969,66.4497656 C68.3995312,65.6690625 68.3114062,64.8342188 68.2605469,63.9346875 C68.2605469,63.9346875 63.4807031,67.5016406 59.8310156,67.5342188 C56.1810937,67.5667969 51.7333594,64.1596875 51.7333594,64.1596875 C51.6817969,65.075625 51.5913281,65.9228906 51.4678125,66.7139063 C51.5613281,66.7877344 51.6541406,66.8627344 51.7492969,66.9358594 L51.748125,66.94875 C52.0291406,67.1934375 56.3015625,70.8672656 59.8303125,70.8302344 C63.3590625,70.8670312 67.6310156,67.1927344 67.9125,66.94875 L67.9117969,66.9358594 C68.1189844,66.7771875 68.3200781,66.6138281 68.5185937,66.4502344 L68.5192969,66.4497656 Z" id="Shape" fill="#F0B97D"></path>
                    <path d="M51.7485937,64.1709375 C52.0296094,64.3830469 56.3020312,67.565625 59.8307813,67.53375 C63.3595313,67.565625 67.6314844,64.3825781 67.9129688,64.1709375 C73.2466406,61.0614844 77.623125,51.8936719 76.6352344,41.9578125 C75.8261719,33.8189062 67.0216406,45.7528125 60.8894531,28.9598438 C52.2103125,47.1407813 43.966875,36.38625 43.0270312,43.2764063 C41.9910937,50.8680469 46.2532031,60.4202344 51.7485937,64.1714063 L51.7485937,64.1709375 L51.7485937,64.1709375 Z" id="Shape" fill="#FED198"></path>
                    <path d="M44.7459375,76.90125 C39.4933594,79.7069531 29.8846875,79.7917969 26.2286719,85.6696875 C25.591875,86.6932031 23.9934375,99.2325 22.2351562,106.621406 C32.5471875,114.984609 45.6869531,119.999297 59.9985937,119.999297 C74.3114062,119.999297 87.45,114.985313 97.7627344,106.621406 C96.0044531,99.2325 94.2138281,86.7904688 93.7692187,85.6696875 C91.3415625,79.5466406 80.10375,79.2909375 74.8457812,76.4674219 C66.6707812,106.126641 54.4860937,108.148594 44.7464062,76.9038281 L44.7445312,76.9014844 L44.7459375,76.9014844 L44.7459375,76.90125 Z" id="Shape" fill="#FF5B62"></path>
                    <g id="Group" transform="translate(36.328125, 73.828125)" fill="#FFFFFF">
                        <path d="M11.9200781,0.125390625 C11.5788281,9.35296875 13.1477344,22.4257031 23.5014844,25.7664844 C13.7538281,26.1740625 7.42851563,12.1291406 0.222890625,8.450625 L11.9198437,0.12609375 L11.9198437,0.125390625 L11.9200781,0.125390625 Z" id="Shape"></path>
                        <path d="M35.6634375,0.125390625 C36.0213281,9.35296875 34.374375,22.4257031 23.5017187,25.7664844 C33.7375781,26.1740625 40.38,12.1291406 47.9451563,8.450625 L35.6629688,0.12609375 L35.6634375,0.125390625 Z" id="Shape"></path>
                    </g>
                </g>
                <g id="medical-history-(2)" transform="translate(180.000000, 0.000000)" fill-rule="nonzero">
                    <circle id="Oval" stroke="#63AEFF" fill="#63AEFF" cx="59.9997656" cy="59.9997656" r="59.9997656"></circle>
                    <rect id="Rectangle-path" fill="#FF5B62" x="14.315625" y="16.1636719" width="76.366875" height="99.091875"></rect>
                    <polygon id="Shape" fill="#DCE3DB" points="17.0641406 19.5923438 85.6125 19.5923438 87.9363281 112.274531 19.3877344 112.274531"></polygon>
                    <rect id="Rectangle-path" fill="#FFFFFF" x="18.208125" y="19.5928125" width="67.4032031" height="90.4040625"></rect>
                    <path d="M43.6544531,13.7547656 L62.1140625,13.7547656 C63.4432031,13.7547656 64.5314063,14.8422656 64.5314063,16.1721094 L64.5314063,24.1064063 L41.2373438,24.1064063 L41.2373438,16.1721094 C41.2371094,14.8429688 42.3248438,13.7547656 43.6544531,13.7547656 Z" id="Shape" fill="#666666"></path>
                    <path d="M40.738125,23.5075781 L65.0296875,23.5075781 C65.5439062,23.5075781 65.9603906,23.9242969 65.9603906,24.4380469 L65.9603906,24.4380469 C65.9603906,24.9520313 65.5436719,25.3685156 65.0296875,25.3685156 L40.738125,25.3685156 C40.2239062,25.3685156 39.8074219,24.9517969 39.8074219,24.4380469 L39.8074219,24.4380469 C39.8071875,23.9240625 40.2241406,23.5075781 40.738125,23.5075781 Z" id="Shape" fill="#B0B0B0"></path>
                    <path d="M50.45625,11.3460937 L48.49125,23.5066406 L47.4799219,23.5066406 L49.4392969,11.3765625 C48.8824219,10.6035937 48.5988281,9.67734375 48.5988281,8.76820312 C48.5988281,8.18554687 48.7150781,7.606875 48.9492188,7.07765625 C49.1864063,6.5428125 49.5442969,6.0590625 50.0245313,5.67117187 C51.5533594,4.4371875 54.2048437,4.43601562 55.734375,5.67046875 C56.21625,6.05976562 56.5753125,6.54539062 56.8132031,7.08140625 C57.04875,7.61273437 57.1654687,8.19304687 57.1654687,8.77828125 C57.1654687,9.684375 56.8844531,10.6073437 56.3294531,11.3767969 L58.2888281,23.5073437 L57.2775,23.5073437 L55.3125,11.3467969 C55.2829687,11.1923437 55.3284375,11.0414062 55.423125,10.9305469 C55.92,10.3089844 56.17125,9.53765625 56.17125,8.77828125 C56.17125,8.3278125 56.0828906,7.884375 55.9042969,7.48171875 C55.7282812,7.08515625 55.4648437,6.72796875 55.1125781,6.44414062 C53.9500781,5.5059375 51.8083594,5.5078125 50.6463281,6.44484375 C50.2952344,6.72773437 50.0334375,7.08375 49.8583594,7.47820312 C49.6804687,7.87851562 49.5932812,8.32054687 49.5932812,8.7684375 C49.5932812,9.53578125 49.8503906,10.3164844 50.355,10.9422656 C50.4501562,11.0603906 50.4820312,11.2082812 50.45625,11.3460937 L50.45625,11.3460937 Z" id="Shape" fill="#FEFEFE"></path>
                    <g id="Group" transform="translate(44.531250, 45.937500)" fill="#C2C2C4">
                        <path d="M0.1978125,0.18703125 L35.3360156,0.18703125 L35.3360156,1.07554687 L0.1978125,1.07554687 L0.1978125,0.18703125 Z M0.1978125,8.75835937 L22.1179687,8.75835937 L22.1179687,9.646875 L0.1978125,9.646875 L0.1978125,8.75835937 Z M0.1978125,4.4728125 L35.3360156,4.4728125 L35.3360156,5.36132812 L0.1978125,5.36132812 L0.1978125,4.4728125 Z" id="Shape"></path>
                        <path d="M0.1978125,22.959375 L35.3360156,22.959375 L35.3360156,23.8478906 L0.1978125,23.8478906 L0.1978125,22.959375 Z M0.1978125,31.5304688 L22.1179687,31.5304688 L22.1179687,32.4189844 L0.1978125,32.4189844 L0.1978125,31.5304688 Z M0.1978125,27.2449219 L35.3360156,27.2449219 L35.3360156,28.1334375 L0.1978125,28.1334375 L0.1978125,27.2449219 Z" id="Shape"></path>
                        <path d="M0.1978125,45.7314844 L35.3360156,45.7314844 L35.3360156,46.62 L0.1978125,46.62 L0.1978125,45.7314844 Z M0.1978125,54.3025781 L22.1179687,54.3025781 L22.1179687,55.1910937 L0.1978125,55.1910937 L0.1978125,54.3025781 Z M0.1978125,50.0170312 L35.3360156,50.0170312 L35.3360156,50.9055469 L0.1978125,50.9055469 L0.1978125,50.0170312 Z" id="Shape"></path>
                    </g>
                    <g id="Group" transform="translate(22.734375, 44.062500)" fill="#63AEFF">
                        <path d="M6.66726563,0.179765625 C8.49328125,0.179765625 10.1463281,0.919921875 11.3425781,2.11640625 L11.341875,2.11710937 C12.5388281,3.31476563 13.2796875,4.9678125 13.2796875,6.79171875 C13.2796875,8.61773437 12.5395313,10.2707812 11.3430469,11.4670312 C10.1467969,12.6632813 8.49375,13.4036719 6.66773438,13.4036719 C4.84359375,13.4036719 3.19054688,12.6628125 1.993125,11.4658594 L1.99195313,11.4670312 C0.795703125,10.2707812 0.0553125,8.61703125 0.0553125,6.79171875 C0.0553125,4.96828125 0.79546875,3.31523437 1.99195313,2.11828125 L1.993125,2.11710937 L1.99429688,2.11640625 C3.19125,0.92015625 4.84429688,0.179765625 6.66773438,0.179765625 L6.66726563,0.179765625 Z M10.6450781,2.81390625 C9.62695313,1.79601563 8.22046875,1.16648438 6.6675,1.16648438 C5.11265625,1.16648438 3.70617187,1.79554687 2.68992188,2.81226562 L2.68734375,2.81414063 C1.67109375,3.83109375 1.0415625,5.236875 1.0415625,6.79171875 C1.0415625,8.3446875 1.67179688,9.75117188 2.6896875,10.7692969 L2.6896875,10.771875 C3.7059375,11.788125 5.11265625,12.4176563 6.66726562,12.4176563 C8.22023438,12.4176563 9.62671875,11.7874219 10.6448438,10.7695312 C11.6627344,9.75140625 12.2922656,8.34492187 12.2922656,6.79195312 C12.2922656,5.23710937 11.6632031,3.83132812 10.6464844,2.814375 L10.6450781,2.814375 L10.6450781,2.81390625 Z" id="Shape"></path>
                        <path d="M6.66726563,22.9525781 C8.49328125,22.9525781 10.1463281,23.6922656 11.3425781,24.8892187 L11.341875,24.8899219 C12.5388281,26.0875781 13.2796875,27.740625 13.2796875,29.5645312 C13.2796875,31.3905469 12.5395313,33.0435937 11.3430469,34.2398437 C10.1467969,35.4360937 8.49375,36.1764844 6.66773438,36.1764844 C4.84359375,36.1764844 3.19054688,35.435625 1.993125,34.2386719 L1.99195313,34.2398437 C0.795703125,33.0435937 0.0553125,31.3898437 0.0553125,29.5645312 C0.0553125,27.7410937 0.79546875,26.0880469 1.99195313,24.8910937 L1.993125,24.8899219 L1.99429688,24.8892187 C3.19125,23.6929687 4.84429688,22.9525781 6.66773438,22.9525781 L6.66726563,22.9525781 Z M10.6450781,25.5869531 C9.62695313,24.5690625 8.22046875,23.9395313 6.6675,23.9395313 C5.11265625,23.9395313 3.70617187,24.5685938 2.68992188,25.5853125 L2.68734375,25.5871875 C1.67109375,26.6041406 1.0415625,28.0099219 1.0415625,29.5647656 C1.0415625,31.1177344 1.67179688,32.5242188 2.6896875,33.5423438 L2.6896875,33.5442187 C3.7059375,34.5602344 5.11265625,35.19 6.66726562,35.19 C8.22023438,35.19 9.62671875,34.5597656 10.6448438,33.5425781 C11.6627344,32.5246875 12.2922656,31.1179687 12.2922656,29.565 C12.2922656,28.0101562 11.6632031,26.604375 10.6464844,25.5874219 L10.6450781,25.5874219 L10.6450781,25.5869531 Z" id="Shape"></path>
                        <path d="M6.66726563,45.7249219 C8.49328125,45.7249219 10.1463281,46.4646094 11.3425781,47.6615625 L11.341875,47.6627344 C12.5388281,48.8596875 13.2796875,50.5127344 13.2796875,52.336875 C13.2796875,54.1628906 12.5395313,55.8159375 11.3430469,57.0121875 C10.1467969,58.2084375 8.49375,58.9488281 6.66773438,58.9488281 C4.84359375,58.9488281 3.19054688,58.2079687 1.993125,57.0110156 L1.99195313,57.0121875 C0.795703125,55.8159375 0.0553125,54.1628906 0.0553125,52.336875 C0.0553125,50.5134375 0.79546875,48.8603906 1.99195313,47.6634375 L1.993125,47.6627344 L1.99429688,47.6615625 C3.19125,46.4653125 4.84429688,45.7249219 6.66773438,45.7249219 L6.66726563,45.7249219 Z M10.6450781,48.3590625 C9.62695313,47.3411719 8.22046875,46.7116406 6.6675,46.7116406 C5.11265625,46.7116406 3.70617187,47.3407031 2.68992188,48.3574219 L2.68734375,48.3592969 C1.67109375,49.37625 1.0415625,50.7822656 1.0415625,52.336875 C1.0415625,53.8898437 1.67179688,55.2963281 2.6896875,56.3144531 L2.6896875,56.3163281 C3.7059375,57.3332812 5.11265625,57.9621094 6.66726562,57.9621094 C8.22023438,57.9621094 9.62671875,57.331875 10.6448438,56.3146875 C11.6627344,55.2967969 12.2922656,53.8900781 12.2922656,52.3371094 C12.2922656,50.7822656 11.6632031,49.3764844 10.6464844,48.3595312 L10.6450781,48.3595312 L10.6450781,48.3590625 Z" id="Shape"></path>
                    </g>
                    <g id="Group" transform="translate(25.546875, 47.578125)" fill="#FF5B62">
                        <path d="M0.27890625,3.965625 C0.03609375,3.78 -0.01078125,3.43242187 0.175078125,3.18960937 C0.360703125,2.94679687 0.70875,2.89992187 0.9515625,3.08578125 L2.86171875,4.5496875 L5.895,0.441796875 C6.076875,0.1959375 6.42375,0.14484375 6.66960938,0.326953125 C6.915,0.508828125 6.9665625,0.85640625 6.78398438,1.1015625 L3.42726562,5.64890625 L3.4125,5.66859375 C3.226875,5.91140625 2.87882812,5.95828125 2.63601562,5.77242187 L0.279140625,3.96632812 C0.27890625,3.96632812 0.27890625,3.965625 0.27890625,3.965625 Z" id="Shape"></path>
                        <path d="M0.656953125,26.9629688 C0.414140625,26.7773438 0.367265625,26.4292969 0.553125,26.1864844 C0.73875,25.9436719 1.08679687,25.8967969 1.32960937,26.0826563 L3.23976562,27.5465625 L6.27304687,23.4379687 C6.45492188,23.1925781 6.80179687,23.1410156 7.04765625,23.3235938 C7.29304687,23.5054688 7.34460937,23.8530469 7.16203125,24.0982031 L3.8053125,28.6455469 L3.79054687,28.6652344 C3.60492187,28.9080469 3.256875,28.9549219 3.0140625,28.7690625 L0.656953125,26.9629688 Z" id="Shape"></path>
                        <path d="M0.656953125,49.7357813 C0.414140625,49.5501563 0.367265625,49.2025781 0.553125,48.96 C0.73875,48.7171875 1.08679687,48.6703125 1.32960937,48.8561719 L3.23976562,50.3200781 L6.27304687,46.2114844 C6.45492188,45.9660938 6.80179687,45.9145313 7.04765625,46.0971094 C7.29304687,46.2789844 7.34460937,46.6265625 7.16203125,46.8717188 L3.8053125,51.4190625 L3.79054687,51.43875 C3.60492187,51.6815625 3.256875,51.7284375 3.0140625,51.5425781 L0.6571875,49.7364844 L0.6571875,49.7357813 L0.656953125,49.7357813 Z" id="Shape"></path>
                    </g>
                    <rect id="Rectangle-path" fill="#186FCC" x="97.9525781" y="24.7040625" width="5.82046875" height="28.9354687"></rect>
                    <g id="Group" transform="translate(97.500000, 5.625000)" fill="#FF5B62">
                        <polygon id="Shape" points="0.451875 48.0133594 6.27304687 48.0133594 4.45570312 53.7557812 2.26945312 53.7557812 0.452109375 48.0133594"></polygon>
                        <path d="M1.82671875,0.045703125 L4.89867187,0.045703125 C5.78273437,0.045703125 6.50648437,0.76921875 6.50648437,1.65351562 L6.50648437,18.9960938 C6.50648437,19.0422656 6.46945312,19.0783594 6.42421875,19.0783594 L0.30234375,19.0783594 C0.256875,19.0783594 0.220078125,19.0413281 0.220078125,18.9960938 L0.220078125,1.65328125 C0.220078125,0.76921875 0.94359375,0.04546875 1.82789062,0.04546875 C1.82765625,0.045703125 1.82671875,0.045703125 1.82671875,0.045703125 Z" id="Shape"></path>
                    </g>
                    <path d="M104.005547,7.27828125 L104.005547,24.6250781 C104.002969,24.6675 103.969922,24.70125 103.9275,24.703125 L103.923281,24.703125 L103.183125,24.703125 L103.183125,5.87648438 C103.672734,6.15257813 104.005547,6.67875 104.005547,7.27828125 Z" id="Shape" fill="#ED4C54"></path>
                    <path d="M100.303594,59.3803125 L101.422031,59.3803125 L101.422031,62.0545313 C101.422031,62.3625 101.170547,62.6132813 100.863281,62.6132813 L100.862578,62.6132813 C100.555313,62.6132813 100.303828,62.3625 100.303828,62.0545313 L100.303828,59.3803125 L100.303594,59.3803125 Z" id="Shape" fill="#EEF3F7"></path>
                    <path d="M97.7189063,7.37039062 L105.274922,7.37039062 L105.6825,7.37039062 L105.6825,7.79929687 L105.6825,26.015625 L105.6825,26.1822656 L105.573047,26.3071875 L104.854453,27.1235156 C104.509687,27.4300781 103.921172,26.960625 104.259375,26.5401562 L104.868047,25.8485156 L104.868047,8.22867187 L97.7189063,8.22867187 L97.7189063,7.3696875 L97.7189063,7.37039062 L97.7189063,7.37039062 Z" id="Shape" fill="#FAD24D"></path>
                    <rect id="Rectangle-path" fill="#104A87" x="103.052109" y="24.7040625" width="1" height="28.9354687"></rect>
                    <path d="M33.0344531,35.82 C33.0344531,35.5040625 33.2908594,35.2476562 33.6067969,35.2476562 L43.0544531,35.2476562 L45.1746094,30.1094531 C45.294375,29.8178906 45.6276562,29.6791406 45.9192187,29.7984375 C46.06875,29.8598437 46.1779687,29.9777344 46.2332812,30.1167187 L49.3797656,38.0552344 L52.0558594,33.523125 C52.2164063,33.2519531 52.5667969,33.1621875 52.8384375,33.3222656 C52.9244531,33.3733594 52.9914844,33.4427344 53.0392969,33.523125 L54.5908594,35.9022656 L56.8401563,33.5095312 C57.0557812,33.2803125 57.4178906,33.2690625 57.6478125,33.4849219 C57.6916406,33.5261719 57.7263281,33.5721094 57.7546875,33.6213281 L58.6664062,35.2485938 L70.9188281,35.2485938 C71.2347656,35.2485938 71.4911719,35.505 71.4911719,35.8209375 C71.4911719,36.136875 71.2347656,36.3932813 70.9188281,36.3932813 L58.3326562,36.3932813 C58.1322656,36.3921094 57.9384375,36.2871094 57.8341406,36.1000781 L57.1389844,34.8592969 L54.9257812,37.2126563 C54.894375,37.2440625 54.8594531,37.2745313 54.8205469,37.2991406 C54.556875,37.4707031 54.2027344,37.395 54.0311719,37.1313281 L52.5721875,34.89375 L49.7859375,39.6121875 C49.7245312,39.7314844 49.6216406,39.8292188 49.4878125,39.8821875 C49.1939062,39.9977344 48.8613281,39.853125 48.7450781,39.5601563 L45.6909375,31.8489844 L43.98,35.9948438 C43.9057031,36.2240625 43.6903125,36.3909375 43.4360156,36.3909375 L33.6070312,36.3909375 C33.2908594,36.3923437 33.0344531,36.1359375 33.0344531,35.82 Z" id="Shape" fill="#63AEFF"></path>
                </g>
                <g id="doctor-(12)" transform="translate(360.000000, 0.000000)" fill-rule="nonzero">
                    <circle id="Oval" fill="#FF5B62" cx="60" cy="59.9995312" r="59.9995312"></circle>
                    <path d="M51.6370313,58.4599219 C57.2116406,58.4599219 62.78625,58.4599219 68.3603906,58.4599219 L68.4517969,59.6029687 L60.2791406,71.9927344 L51.4999219,59.480625 L51.6367969,58.460625 L51.6370313,58.4599219 L51.6370313,58.4599219 Z" id="Shape" fill="#B3B3B3"></path>
                    <polygon id="Shape" fill="#F0BA7D" points="51.7448438 55.3521094 51.6 62.3409375 39.7429688 68.8246875 39.7429688 92.5914844 59.7032812 92.5914844 79.6610156 92.5914844 79.6610156 68.8244531 68.6416406 61.9753125 68.0364844 54.9876563 51.7450781 55.351875 51.7448438 55.351875"></polygon>
                    <path d="M46.2658594,34.9715625 C46.2658594,34.9715625 45.5859375,33.4776562 43.760625,34.2180469 C41.9348438,34.9575 43.8426563,42.339375 44.5403906,43.3692187 C45.2374219,44.3985937 46.3598438,43.7449219 46.7685938,43.7041406 C47.3498438,48.1047656 47.4016406,51.1378125 49.1632031,52.9933594 C50.8317188,54.7502344 54.6515625,58.3307812 56.6639062,59.5795312 C58.0267969,59.8673437 59.0435156,60.0363281 60,60.0869531 C60.9560156,60.0363281 61.9736719,59.866875 63.3360937,59.5795312 C65.3482031,58.3314844 69.16875,54.7502344 70.8367969,52.9933594 C72.5978906,51.1378125 72.6501562,48.1054687 73.2314062,43.7041406 C73.6401562,43.7451563 74.7625781,44.3985937 75.4596094,43.3692187 C76.1571094,42.339375 78.0651562,34.9572656 76.239375,34.2180469 C74.4135937,33.4774219 73.7341406,34.9715625 73.7341406,34.9715625 C73.7341406,34.9715625 75.5385937,29.1747656 72.3311719,23.4689062 C70.1332031,19.558125 65.1201562,17.5298437 60.0002344,17.3810156 C54.8803125,17.5298438 49.8672656,19.558125 47.6692969,23.4689062 C44.461875,29.175 46.2663281,34.9715625 46.2663281,34.9715625 L46.2658594,34.9715625 L46.2658594,34.9715625 Z" id="Shape" fill="#FED298"></path>
                    <path d="M45.7853906,64.396875 L48.6248438,63.2784375 L50.9130469,61.2222656 L58.9924219,67.35 L61.0045312,67.35 L69.0864844,61.215 L74.2132031,64.3975781 L83.1220313,79.5405469 L76.0666406,117.819375 C70.9523438,119.237813 65.5645313,119.999063 59.9983594,119.999063 C55.45875,119.999063 51.0382031,119.491641 46.7871094,118.536563 L34.1414063,80.7503906 L45.7846875,64.3971094 L45.7853906,64.396875 Z" id="Shape" fill="#186FCC"></path>
                    <g id="Group" transform="translate(48.281250, 58.359375)" stroke="#63AEFF" fill="#63AEFF">
                        <polygon id="Shape" points="23.3409375 4.12289062 20.0791406 0.100546875 12.7242188 8.99085937 19.0373438 16.0057031"></polygon>
                        <polygon id="Shape" points="0.09 4.05210937 3.35601562 0.100546875 10.7114062 8.99085937 4.1475 15.9335156"></polygon>
                    </g>
                    <path d="M48.3717187,62.4114844 L26.7520312,69.4420312 C25.8728906,69.7272656 25.3207031,70.4749219 25.1416406,71.3824219 L18.7842188,103.599141 C23.0655469,107.647969 27.9435937,111.070547 33.2716406,113.726484 L36.4321875,103.411875 C36.4689844,103.293516 36.5814844,103.219687 36.7045313,103.234453 C36.8271094,103.248984 36.9203906,103.347187 36.9271875,103.471172 L37.3835156,115.585547 C44.3634375,118.429687 51.9979687,119.999062 60.0004687,119.999062 L60.0004687,115.976719 L48.3721875,62.4117188 L48.3717187,62.4114844 Z" id="Shape" fill="#FFFFFF"></path>
                    <g id="Group" transform="translate(39.140625, 62.343750)" fill="#EEF3F7">
                        <polygon id="Shape" points="9.23109375 0.067734375 6.75492187 0.828515625 0.194765625 12.0220312 8.47640625 12.2814844 3.39210937 15.17625 20.8600781 53.6334375 9.23179687 0.068203125"></polygon>
                        <path d="M32.4815625,0.138515625 L54.1078125,7.09828125 C54.9883594,7.38164063 55.5386719,8.13117187 55.7177344,9.03867188 L62.0753906,41.2558594 C57.7935937,45.3046875 52.9153125,48.7275 47.5870312,51.3836719 L44.4260156,41.0685937 C44.3896875,40.9502344 44.2760156,40.8764062 44.1536719,40.8911719 C44.0310937,40.9057031 43.93875,41.004375 43.9314844,41.1278906 L43.4763281,53.2422656 C36.4964062,56.0864062 28.861875,57.6557812 20.8598438,57.6557812 L20.859375,57.6557812 L20.859375,53.6334375 L32.4813281,0.13921875 L32.4815625,0.138515625 Z" id="Shape"></path>
                    </g>
                    <polygon id="Shape" fill="#FFFFFF" points="71.6221875 62.4822656 72.9967969 62.9003906 80.6592187 74.4363281 72.3775781 74.69625 77.4623437 77.59125 60 115.977187 71.6219531 62.4829688 71.6219531 62.4825 71.6221875 62.4825"></polygon>
                    <path d="M62.4503906,115.725469 C61.72125,115.725469 61.1301562,116.315156 61.1301562,117.041719 C61.1301562,117.769453 61.7217187,118.358906 62.4503906,118.358906 C63.1790625,118.358906 63.770625,117.769219 63.770625,117.041719 C63.770625,116.314688 63.1790625,115.725469 62.4503906,115.725469 Z" id="Shape" fill="#D9DADA"></path>
                    <path d="M72.1586719,36.6975 L73.4308594,36.6529687 L73.8403125,35.20125 L75.0386719,34.0054687 C75.8301563,28.0457812 76.0633594,18.7703906 70.1479687,19.0380469 C70.1479687,19.0380469 69.6145312,12.2749219 58.9446094,13.6005469 C48.2739844,14.9266406 43.4528906,21.8149219 44.0273438,27.5617969 C44.6013281,33.3086719 44.37,34.0047656 44.37,34.0047656 L45.5683594,35.2010156 L45.7490625,36.8524219 L46.7955469,36.7863281 C46.7955469,36.7863281 47.1236719,34.5759375 47.4520312,33.60375 C47.780625,32.6317969 47.6777344,30.6639844 47.6777344,30.6639844 C47.6777344,30.6639844 60.2810156,31.4669531 63.6869531,27.1345312 C65.7904688,24.4591406 70.6214062,19.8234375 70.8646875,26.2434375 C70.936875,28.1472656 70.2290625,31.0007812 71.5835156,33.0775781 C72.9384375,35.1546094 72.1582031,36.6970312 72.1582031,36.6970312 L72.1586719,36.6970312 L72.1586719,36.6975 Z" id="Shape" fill="#666666"></path>
                    <polygon id="Shape" fill="#104A87" points="60 115.976719 63.406875 100.296094 61.0917187 69.3867188 62.353125 68.8483594 61.0047656 67.3504687 58.9926563 67.3504687 57.6098438 68.8134375 58.9078125 69.3869531 56.6505469 100.546406 60.0002344 115.976953"></polygon>
                    <path d="M62.3329687,115.725469 C61.6689844,115.725469 61.1299219,116.262188 61.1299219,116.924297 C61.1299219,117.587109 61.66875,118.124297 62.3329687,118.124297 C62.9964844,118.124297 63.5360156,117.587344 63.5360156,116.924297 C63.5360156,116.262422 62.9964844,115.725469 62.3329687,115.725469 Z" id="Shape" fill="#FFFFFF"></path>
                    <path d="M81.1863281,95.8748437 C78.8449219,95.4705469 77.2746094,93.2444531 77.6784375,90.90375 C78.0827344,88.5628125 80.3088281,86.9913281 82.6495312,87.3953906 C84.9909375,87.7996875 86.56125,90.02625 86.1574219,92.3676562 C85.753125,94.7083594 83.5270312,96.279375 81.1858594,95.8750781 L81.1863281,95.8748437 L81.1863281,95.8748437 Z" id="Shape" fill="#FEFEFE"></path>
                    <path d="M81.22875,95.6278125 C79.02375,95.2469531 77.5448438,93.1516406 77.9257031,90.9459375 C78.3065625,88.7407031 80.4025781,87.2615625 82.6080469,87.6419531 C84.8130469,88.0228125 86.2919531,90.1192969 85.9110938,92.3242969 C85.5302344,94.53 83.4342188,96.0082031 81.22875,95.6273438 L81.22875,95.6278125 Z" id="Shape" fill="#186FCC"></path>
                    <path d="M81.5367187,93.8449219 C80.3170312,93.6346875 79.4985937,92.4738281 79.7088281,91.2539062 C79.9190625,90.03375 81.0799219,89.2157812 82.299375,89.4260156 C83.5195312,89.6367187 84.3379687,90.7959375 84.1272656,92.0165625 C83.9170312,93.23625 82.7566406,94.0546875 81.5367187,93.8444531 L81.5367187,93.8449219 Z" id="Shape" fill="#EBECEC"></path>
                    <polygon id="Shape" fill="#FEFEFE" points="81.8003906 89.6664844 82.7854687 89.8366406 83.3151562 86.7686719 82.3300781 86.5985156"></polygon>
                    <path d="M50.6521875,96.3595313 C51.4366406,96.2034375 52.0860937,95.7419531 52.5007031,95.1222656 C52.9141406,94.5025781 53.0939062,93.7260937 52.9378125,92.9414062 L50.7667969,82.0038281 C49.9471875,77.8764844 46.7184375,75.7717969 43.0289063,75.3051562 C41.6151562,75.1263281 40.1329688,75.1914844 38.6969531,75.4757812 C37.2597656,75.7600781 35.8666406,76.2653906 34.6289062,76.9701563 C31.4053125,78.80625 29.2328906,81.980625 30.0534375,86.1145312 L32.2244531,97.0525781 C32.3805469,97.8370312 32.8429688,98.4860156 33.4621875,98.900625 C34.0835156,99.3147656 34.8590625,99.4933594 35.6435156,99.3377344 L37.4885156,98.9714063 L37.3375781,98.210625 L35.4921094,98.5769531 C34.9169531,98.6910938 34.3471875,98.559375 33.8932031,98.2565625 C33.4394531,97.951875 33.1000781,97.4758594 32.9857031,96.9011719 L30.8146875,85.963125 C30.0700781,82.2119531 32.060625,79.3207031 35.0102344,77.641875 C36.1760156,76.9774219 37.490625,76.5009375 38.8476563,76.2316406 C40.2046875,75.9628125 41.6020313,75.9021094 42.93375,76.0703906 C46.3108594,76.4971875 49.2639844,78.4096875 50.0067188,82.1535937 L52.1782031,93.0916406 C52.291875,93.6663281 52.1601563,94.235625 51.856875,94.6905469 C51.5526563,95.1442969 51.0766406,95.4836719 50.50125,95.5973437 L48.6553125,95.9636719 L48.80625,96.7244531 L50.6521875,96.3595313 Z" id="Shape" fill="#186FCC"></path>
                    <path d="M51.3525,83.6247656 L51.0208594,81.9541406 C50.1764062,77.6988281 46.854375,75.5299219 43.06125,75.0496875 C41.6200781,74.8678125 40.1107031,74.9329688 38.6477344,75.2233594 C37.1847656,75.5128125 35.7646875,76.0284375 34.5035156,76.7460938 C31.1880469,78.6342188 28.9549219,81.9028125 29.8010156,86.165625 L30.133125,87.83625 L31.4001563,87.5840625 L31.0685156,85.9134375 C30.3496875,82.2904688 32.2797656,79.4932031 35.1375,77.8659375 C36.2798438,77.2157813 37.5679688,76.7491406 38.8985156,76.4852344 C40.2285938,76.2210937 41.5985156,76.1617969 42.9032813,76.3265625 C46.1753906,76.74 49.0361719,78.5882812 49.7545312,82.2051562 L50.0861719,83.8757812 L51.3536719,83.6240625 L51.3525,83.6247656 Z" id="Shape" fill="#4D4D4D"></path>
                    <g id="Group" transform="translate(35.625000, 95.390625)" fill="#104A87">
                        <path d="M0.399375,4.03945312 L1.38703125,3.84328125 C1.635,4.12148438 2.01867187,4.26421875 2.40960938,4.186875 C2.9971875,4.07015625 3.37898437,3.4996875 3.26226563,2.91164063 C3.14601562,2.32453125 2.57507813,1.94273438 1.9875,2.05945313 C1.595625,2.13679688 1.29609375,2.4159375 1.17375,2.7675 L0.186796875,2.96320313 L0.400078125,4.03898437 L0.399375,4.03945312 Z" id="Shape"></path>
                        <path d="M13.9659375,1.34671875 L12.9794531,1.54289063 C12.856875,1.89421875 12.5573437,2.17289063 12.1661719,2.2509375 C11.5785937,2.3671875 11.008125,1.98585938 10.8914062,1.3978125 C10.7751562,0.810703125 11.1564844,0.239765625 11.7435937,0.123515625 C12.1347656,0.046171875 12.5189062,0.189609375 12.7657031,0.467109375 L13.7526562,0.2709375 L13.9659375,1.34671875 Z" id="Shape"></path>
                    </g>
                    <path d="M39.2479687,75.1246875 L38.8713281,73.2271875 L38.1225,73.3760156 L37.3746094,73.524375 L37.7554687,75.440625 C38.0407031,75.3574219 38.3294531,75.2866406 38.6210156,75.22875 C38.8289062,75.1872656 39.0375,75.1532812 39.2479687,75.1246875 Z" id="Shape" fill="#666666"></path>
                    <g id="Group" transform="translate(37.031250, 95.625000)" fill="#0F7986">
                        <path d="M0.60140625,2.74921875 C0.7790625,2.7140625 0.894609375,2.540625 0.85921875,2.36367187 C0.8240625,2.18578125 0.65203125,2.07 0.473671875,2.10515625 C0.29578125,2.1403125 0.18046875,2.31328125 0.215859375,2.49070312 C0.25125,2.668125 0.423515625,2.784375 0.60140625,2.74851562 L0.60140625,2.74921875 Z" id="Shape"></path>
                        <path d="M10.3638281,0.80765625 C10.54125,0.7725 10.6563281,0.59953125 10.6211719,0.422578125 C10.5860156,0.24421875 10.4139844,0.12890625 10.235625,0.1640625 C10.0577344,0.19921875 9.94242187,0.3721875 9.9778125,0.550078125 C10.0125,0.727734375 10.1854687,0.843046875 10.3638281,0.80765625 Z" id="Shape"></path>
                    </g>
                    <path d="M81.4169531,93.8242969 C80.263125,93.6253125 79.4894531,92.5282031 79.6882031,91.3736719 C79.8871875,90.2203125 80.9835937,89.4461719 82.1376563,89.645625 C83.2914844,89.8446094 84.065625,90.9417188 83.8664062,92.0950781 C83.6669531,93.2489063 82.5698438,94.0230469 81.4164844,93.8242969 L81.4169531,93.8242969 Z" id="Shape" fill="#FEFEFE"></path>
                    <g id="Group" transform="translate(37.265625, 61.875000)" fill="#4D4D4D">
                        <path d="M11.1166406,1.10554687 C11.0835937,1.10601562 -0.569296875,1.20257812 1.39898437,11.3974219 L0.315234375,11.6046094 C-1.90359375,0.111328125 11.0669531,0.005390625 11.10375,0.004921875 L11.1166406,1.10554687 Z" id="Shape"></path>
                        <path d="M34.3694531,0.056953125 C36.2707031,0.10828125 39.9457031,0.626484375 42.7746094,4.06734375 C45.5428125,7.43460938 47.4834375,13.6185938 46.0324219,24.9567187 L44.94,24.8186719 C46.3446094,13.8447656 44.5296094,7.93617187 41.9247656,4.76695312 C39.3796875,1.670625 36.0611719,1.20398437 34.344375,1.1578125 L34.3701562,0.056953125 L34.3694531,0.056953125 Z" id="Shape"></path>
                    </g>
                </g>
            </g>
        </g>
    </g>
</svg>