<?xml version="1.0" encoding="UTF-8"?>
<svg width="479px" height="120px" viewBox="0 0 479 120" version="1.1" xmlns="http://www.w3.org/2000/svg" xmlns:xlink="http://www.w3.org/1999/xlink">
    <!-- Generator: Sketch 45.2 (43514) - http://www.bohemiancoding.com/sketch -->
    <title>Group 6</title>
    <desc>Created with Sketch.</desc>
    <defs></defs>
    <g id="Page-6" stroke="none" stroke-width="1" fill="none" fill-rule="evenodd">
        <g id="2Реформа-для-пациентов_1170рх" transform="translate(-84.000000, -1142.000000)">
            <g id="Group-6" transform="translate(84.000000, 1142.000000)">
                <polygon id="Triangle" stroke="#63AEFF" fill="#63AEFF" points="154.699303 60.0442067 141.300697 71.0884133 141.300697 49"></polygon>
                <polygon id="Triangle-Copy-4" stroke="#63AEFF" fill="#63AEFF" points="330.699303 60.0442067 317.300697 71.0884133 317.300697 49"></polygon>
                <g id="ebook" transform="translate(176.000000, 0.000000)" fill-rule="nonzero">
                    <path d="M59.690825,0 C92.6568197,0 119.381184,26.7238977 119.381184,59.690825 C119.381184,92.6568197 92.6568197,119.381184 59.690825,119.381184 C26.7248303,119.381184 0,92.6568197 0,59.690825 C0,26.7238977 26.724364,0 59.690825,0 Z" id="Shape" fill="#FAD24D"></path>
                    <path d="M59.690825,88.7687704 C60.7314466,88.7687704 61.5755088,89.6128327 61.5755088,90.6534542 C61.5755088,91.6950084 60.7314466,92.5390707 59.690825,92.5390707 C58.6497372,92.5390707 57.8056749,91.6950084 57.8056749,90.6534542 C57.8056749,89.6128327 58.6497372,88.7687704 59.690825,88.7687704 Z" id="Shape" fill="#E74E4E"></path>
                    <path d="M22.5842619,36.2310234 L96.7962224,36.2310234 C99.8514014,36.2310234 102.352111,38.730567 102.352111,41.7864455 L102.352111,77.9022847 L102.352111,80.479939 L102.352111,86.7339275 L102.32483,86.7339275 L102.326929,86.8141367 C102.326929,88.0447888 102.346981,90.5028288 102.346981,91.7274186 C102.346981,92.7463556 101.514111,93.5796922 100.495174,93.5796922 L69.414096,93.5796922 L69.414096,101.370247 L75.1189777,101.370247 C76.0052431,101.370247 76.73109,102.095628 76.73109,102.982359 C76.73109,103.869791 76.0052431,104.594472 75.1189777,104.594472 L44.2626724,104.594472 C43.3759406,104.594472 42.6505601,103.869558 42.6505601,102.982359 C42.6505601,102.095628 43.3759406,101.370247 44.2626724,101.370247 L49.9675541,101.370247 L49.9675541,93.5796922 L18.9079276,93.5796922 C17.8889906,93.5796922 17.055654,92.746822 17.055654,91.7274186 C17.055654,90.5002639 17.055654,88.0443225 17.055654,86.8141367 L17.0577525,86.7339275 L17.029073,86.7339275 L17.029073,80.479939 L17.029073,77.9022847 L17.029073,41.7864455 C17.029073,38.7312665 19.5295492,36.2310234 22.5849614,36.2310234 L22.5842619,36.2310234 Z" id="Shape" fill="#585F73"></path>
                    <polygon id="Shape" fill="#63AEFF" points="21.4424461 40.0533198 97.9387376 40.0533198 97.9387376 82.213531 21.4424461 82.213531"></polygon>
                    <path d="M59.690825,88.7687704 C60.7314466,88.7687704 61.5755088,89.6128327 61.5755088,90.6534542 C61.5755088,91.6950084 60.7314466,92.5390707 59.690825,92.5390707 C58.6497372,92.5390707 57.8061412,91.6950084 57.8061412,90.6534542 C57.8061412,89.6128327 58.6497372,88.7687704 59.690825,88.7687704 Z" id="Shape" fill="#333C54"></path>
                    <polygon id="Shape" fill="#FFFFFF" points="33.4220681 14.7860125 75.0026277 14.7860125 85.959582 25.7429667 85.959582 82.213531 33.4220681 82.213531"></polygon>
                    <g id="Group" transform="translate(73.447408, 14.689482)">
                        <polygon id="Shape" fill-opacity="0.51024683" fill="#585F73" points="1.55475339 0.096530879 1.55475339 11.0534851 12.5117077 11.0534851"></polygon>
                        <polygon id="Shape" fill="#FF5B62" points="12.9260443 78.6712674 7.29157886 70.9182523 3.40352957 73.6922327 0.208917072 57.5135174 14.6808544 65.6440289 10.7942041 68.4180093 16.4286696 76.1710244 12.9260443 78.6715006"></polygon>
                    </g>
                    <path d="M39.8395062,42.9483135 L75.853685,42.9483135 L75.853685,44.1460892 L39.8395062,44.1460892 L39.8395062,42.9483135 Z M39.8395062,38.5881023 L39.8395062,38.5881023 L67.4258863,38.5881023 L67.4258863,39.7865775 L39.8395062,39.7865775 L39.8395062,38.5881023 Z M39.8395062,36.3657936 L39.8395062,36.3657936 L75.8555503,36.3657936 L75.8555503,37.5642688 L39.8395062,37.5642688 L39.8395062,36.3657936 Z M39.8395062,34.1432517 L39.8395062,34.1432517 L75.853685,34.1432517 L75.853685,35.3417269 L39.8395062,35.3417269 L39.8395062,34.1432517 Z M39.8395062,31.9214093 L39.8395062,31.9214093 L75.853685,31.9214093 L75.853685,33.1198845 L39.8395062,33.1198845 L39.8395062,31.9214093 Z M39.8395062,29.6988675 L39.8395062,29.6988675 L75.853685,29.6988675 L75.853685,30.8973426 L39.8395062,30.8973426 L39.8395062,29.6988675 Z M39.8395062,51.8380147 L39.8395062,51.8380147 L67.4258863,51.8380147 L67.4258863,53.0364899 L39.8395062,53.0364899 L39.8395062,51.8380147 Z M39.8395062,49.6154728 L39.8395062,49.6154728 L75.8555503,49.6154728 L75.8555503,50.813948 L39.8395062,50.813948 L39.8395062,49.6154728 Z M39.8395062,47.3931641 L39.8395062,47.3931641 L75.853685,47.3931641 L75.853685,48.5916393 L39.8395062,48.5916393 L39.8395062,47.3931641 Z M39.8395062,45.1706222 L39.8395062,45.1706222 L75.853685,45.1706222 L75.853685,46.3690974 L39.8395062,46.3690974 L39.8395062,45.1706222 Z" id="Shape" fill="#D0D1D4"></path>
                    <path d="M71.0966246,91.9053245 L69.8370598,91.1783118 L72.2729489,86.9586999 L73.5325137,87.6857126 L71.0961582,91.9053245 L71.0966246,91.9053245 Z M85.7247834,64.2415332 L85.7247834,64.2415332 L86.9843482,64.9690123 L84.5479927,69.1881578 L83.2879616,68.4611451 L85.7243171,64.2408337 L85.7247834,64.2415332 Z M91.6604998,69.7517209 L91.6604998,69.7517209 L92.3875126,71.011752 L88.168367,73.4481075 L87.4408879,72.1885427 L91.6611993,69.7521873 L91.6604998,69.7517209 Z M94.046025,77.4914456 L94.046025,77.4914456 L94.046025,78.9459374 L89.1740136,78.9459374 L89.1740136,77.4914456 L94.046025,77.4914456 Z M65.1609082,86.3946704 L65.1609082,86.3946704 L64.4338954,85.1351057 L68.653041,82.6987502 L69.3805201,83.958315 L65.1602087,86.3946704 L65.1609082,86.3946704 Z M62.775383,78.6554121 L62.775383,78.6554121 L62.775383,77.2009203 L67.6473944,77.2009203 L67.6473944,78.6554121 L62.775383,78.6554121 Z M64.5789249,70.759466 L64.5789249,70.759466 L65.306404,69.4999012 L69.5255496,71.9357904 L68.7985368,73.1953551 L64.5782254,70.7589997 L64.5789249,70.759466 Z M70.0888795,64.8235164 L70.0888795,64.8235164 L71.3489106,64.0965037 L73.785266,68.3156492 L72.5257013,69.0431283 L70.0893458,64.8228169 L70.0888795,64.8235164 Z M77.8288373,62.4382244 L77.8288373,62.4382244 L79.2833292,62.4382244 L79.2833292,67.3102358 L77.8288373,67.3102358 L77.8288373,62.4382244 Z" id="Shape" fill="#FF5B62"></path>
                </g>
                <g id="app" fill-rule="nonzero">
                    <circle id="Oval" fill="#ECF0F1" cx="59.6905919" cy="59.6905919" r="59.6905919"></circle>
                    <circle id="Oval" fill="#135091" cx="59.6905919" cy="59.6905919" r="59.6905919"></circle>
                    <path d="M17.417295,3.84841101 L74.857365,3.84841101 C76.6788608,3.84841101 78.1555034,5.32505366 78.1555034,7.14654938 L78.1555034,83.0939672 C78.1555034,84.9154629 76.6788608,86.3921056 74.857365,86.3921056 L17.417295,86.3921056 C15.5957993,86.3921056 14.1191566,84.9154629 14.1191566,83.0939672 L14.1191566,7.14654938 C14.1191566,5.32482049 15.5955661,3.84841101 17.417295,3.84841101 Z" id="Shape" fill="#EEF3F7"></path>
                    <path d="M18.1284525,9.69062769 L74.1462076,9.69062769 C74.3576895,9.69062769 74.5292999,9.86223814 74.5292999,10.07372 L74.5292999,78.2821127 C74.5292999,78.4935946 74.3576895,78.6652051 74.1462076,78.6652051 L18.1284525,78.6652051 C17.9169706,78.6652051 17.7453601,78.4935946 17.7453601,78.2821127 L17.7453601,10.07372 C17.7451269,9.86200498 17.9169706,9.69062769 18.1284525,9.69062769 Z" id="Shape" fill="#63AEFF"></path>
                    <g id="Group" transform="translate(43.835278, 80.209233)" fill="#ECF0F1">
                        <circle id="Oval" cx="2.30205162" cy="2.17987244" r="2.15119297"></circle>
                        <circle id="Oval" cx="31.9519541" cy="3.47837597" r="1.5130166"></circle>
                    </g>
                    <path d="M74.5292999,16.2509968 L17.7448938,16.2509968 L17.7448938,10.0734869 C17.7448938,9.86247131 17.9174369,9.69039452 18.1279861,9.69039452 L74.1459744,9.69039452 C74.3574563,9.69039452 74.5290668,9.86247131 74.5290668,10.0734869 L74.5290668,16.2509968 L74.5292999,16.2509968 Z" id="Shape" fill="#FF5B62"></path>
                    <g id="Group" transform="translate(20.285475, 11.425152)" fill="#FFFFFF">
                        <path d="M1.66830541,0.131739002 C2.48485405,0.131739002 3.14541439,0.792299341 3.14541439,1.60908115 C3.14541439,2.42516346 2.48508722,3.08619013 1.66830541,3.08619013 C0.852689432,3.08619013 0.190963261,2.42539663 0.190963261,1.60908115 C0.190963261,0.792532507 0.852689432,0.131739002 1.66830541,0.131739002 Z" id="Shape"></path>
                        <path d="M5.8261282,0.131739002 C6.64267684,0.131739002 7.30323718,0.792299341 7.30323718,1.60908115 C7.30323718,2.42516346 6.64291001,3.08619013 5.8261282,3.08619013 C5.01051222,3.08619013 4.34878605,2.42539663 4.34878605,1.60908115 C4.34878605,0.792532507 5.01027906,0.131739002 5.8261282,0.131739002 Z" id="Shape"></path>
                        <path d="M9.98395099,0.131739002 C10.8004996,0.131739002 11.46106,0.792299341 11.46106,1.60908115 C11.46106,2.42516346 10.8007328,3.08619013 9.98395099,3.08619013 C9.16833501,3.08619013 8.50660884,2.42539663 8.50660884,1.60908115 C8.50684201,0.792532507 9.16833501,0.131739002 9.98395099,0.131739002 Z" id="Shape"></path>
                        <path d="M18.2723161,0.461436255 L52.0411026,0.461436255 C52.2898911,0.461436255 52.4929791,0.728878087 52.4929791,1.05671001 L52.4929791,2.16145229 C52.4929791,2.48905105 52.2898911,2.75672605 52.0411026,2.75672605 L18.2723161,2.75672605 C18.0235276,2.75672605 17.8204397,2.48905105 17.8204397,2.16145229 L17.8204397,1.05671001 C17.8202065,0.728878087 18.0235276,0.461436255 18.2723161,0.461436255 Z" id="Shape"></path>
                    </g>
                    <path d="M36.8715315,41.8295813 C39.7175602,41.8295813 42.5631227,41.8295813 45.4089183,41.8295813 L45.4557847,42.4129635 L41.2835056,48.7380678 L36.8015816,42.3504749 L36.8715315,41.8295813 L36.8715315,41.8295813 Z" id="Shape" fill="#B3B3B3"></path>
                    <polygon id="Shape" fill="#F0BA7D" points="36.9267919 40.2431172 36.8528782 43.8105628 30.7996459 47.1208258 30.7996459 59.2531718 40.9894828 59.2531718 51.1779207 59.2531718 51.1779207 47.1208258 45.5525488 43.6237965 45.2436033 40.0568173"></polygon>
                    <path d="M34.1299612,29.8390004 C34.1299612,29.8390004 33.7825433,29.0758469 32.8508105,29.4545091 C31.9188445,29.8322386 32.8930136,33.6004404 33.2490587,34.1262306 C33.6048706,34.6517876 34.1777603,34.317427 34.3864442,34.2973747 C34.6830319,36.5439327 34.7096128,38.0921574 35.6084692,39.0395124 C36.4604591,39.9360371 38.4106627,41.7640615 39.4379938,42.4015384 C40.1337622,42.5484332 40.6530237,42.6342384 41.141041,42.6605862 C41.6292913,42.6344716 42.148786,42.5484332 42.8443213,42.4015384 C43.8714192,41.7640615 45.8216228,39.9362703 46.6731464,39.0395124 C47.5722359,38.0921574 47.5988169,36.5439327 47.8956377,34.2973747 C48.1040884,34.3176602 48.6774445,34.6520207 49.0330232,34.1262306 C49.3893014,33.6006736 50.3632374,29.8322386 49.4310382,29.4545091 C48.4993054,29.0760801 48.1523538,29.8390004 48.1523538,29.8390004 C48.1523538,29.8390004 49.073361,26.879886 47.4360667,23.9669385 C46.3140701,21.970568 43.754836,20.9350761 41.141041,20.8590639 C38.5272459,20.9350761 35.9680118,21.970568 34.8462483,23.9669385 C33.2087209,26.879886 34.1299612,29.8390004 34.1299612,29.8390004 L34.1299612,29.8390004 Z" id="Shape" fill="#FED298"></path>
                    <polygon id="Shape" fill="#EBECEC" points="33.884437 44.8607441 35.3340324 44.2897197 36.5024291 43.2397715 40.6266759 46.3683979 41.6542401 46.3683979 45.779886 43.236274 48.3969454 44.8609773 52.9450887 52.5916084 50.5856781 65.3945409 32.019106 65.3945409 27.9410262 53.2085667"></polygon>
                    <g id="Group" transform="translate(20.052308, 41.736781)" fill="#FFFFFF">
                        <polygon id="Shape" points="27.0216511 2.14629648 25.3566101 0.0928002171 21.6019319 4.6313837 24.8247576 8.21235288"></polygon>
                        <polygon id="Shape" points="15.15255 2.10992252 16.8192233 0.0928002171 20.5746009 4.6313837 17.2235338 8.17574576"></polygon>
                        <path d="M15.15255,2.10992252 L4.11561968,5.69905253 C3.66724074,5.84454834 3.38487626,6.22647486 3.29394137,6.68931012 L0.0480322731,23.1361667 C0.23409904,23.3122073 0.422730637,23.4859162 0.612994399,23.6575267 L8.86824989,23.6575267 L9.05688149,23.0408016 C9.07576796,22.9801784 9.13289372,22.9424054 9.19561548,22.9500999 C9.25833723,22.9575612 9.30613634,23.007692 9.309867,23.0706469 L9.33178464,23.6575267 L19.8298675,23.6575267 L15.15255,2.10992252 L15.15255,2.10992252 Z" id="Shape"></path>
                    </g>
                    <g id="Group" transform="translate(30.544795, 43.835278)" fill="#EEF3F7">
                        <polygon id="Shape" points="4.66006316 0.0114251524 3.39583508 0.399880332 0.0468664413 6.11385551 4.27463914 6.24652717 1.67903106 7.72456882 7.96263169 21.5592625 9.3376138 21.5592625"></polygon>
                        <path d="M16.5291643,0.0477991068 L27.5691258,3.60078832 C28.0186706,3.74535147 28.299636,4.12821066 28.3908041,4.59104591 L31.6367132,21.0376693 C31.4501801,21.2137099 31.2615485,21.3874189 31.0710516,21.5590293 L22.8155629,21.5590293 L22.626465,20.9423043 C22.6080448,20.8821473 22.5502196,20.843908 22.4872647,20.8518357 C22.4250092,20.8590639 22.3776765,20.9094278 22.3737126,20.9721496 L22.351795,21.5590293 L11.8553443,21.5590293 L16.5291643,0.0477991068 L16.5291643,0.0477991068 Z" id="Shape"></path>
                    </g>
                    <polygon id="Shape" fill="#FFFFFF" points="47.0739593 43.8830775 47.775557 44.0964247 51.6869229 49.9859742 47.4593834 50.1184127 50.0549914 51.5964543 43.7779195 65.3947741 42.4006057 65.3947741"></polygon>
                    <g id="Group" transform="translate(32.876459, 18.653310)" fill="#666666">
                        <path d="M14.471471,12.066593 L15.1213057,12.0439759 L15.330456,11.3032063 L15.9420514,10.6925436 C16.3458955,7.65042191 16.465743,2.91527918 13.4453058,3.05191468 C13.4453058,3.05191468 13.1732007,-0.401046164 7.72620099,0.27653532 C2.27873498,0.953184139 -0.182802438,4.46956623 0.110754028,7.40326556 C0.404077327,10.337198 0.285861975,10.6925436 0.285861975,10.6925436 L0.897457375,11.3032063 L0.98979126,12.1465691 L1.52420859,12.11276 C1.52420859,12.11276 1.69162205,10.9837684 1.85926867,10.4875904 C2.02691529,9.99141231 1.97468603,8.98693157 1.97468603,8.98693157 C1.97468603,8.98693157 8.4084458,9.39707123 10.1471675,7.185255 C11.2206654,5.81936638 13.6868662,3.45272767 13.8116102,6.7303474 C13.8484505,7.70195168 13.4870426,9.15900836 14.1783809,10.2192159 C14.8699524,11.2794234 14.471471,12.066593 14.471471,12.066593 L14.471471,12.066593 Z" id="Shape"></path>
                        <polygon id="Shape" points="9.52391373 46.7412309 10.003537 44.5338449 8.82208295 28.75501 9.46585531 28.4798736 8.7780145 27.7150879 7.75045029 27.7150879 7.04465567 28.462153 7.70684818 28.75501 6.55477312 44.6620864 7.00595005 46.7416973"></polygon>
                    </g>
                    <path d="M51.9559969,60.9298712 C50.7610192,60.7237521 49.9596264,59.5868328 50.1657455,58.391622 C50.3720977,57.1968775 51.5083175,56.394552 52.7037615,56.6009042 C53.8989723,56.8070233 54.7008315,57.9439426 54.4944792,59.1391534 C54.2883601,60.3345974 53.1514409,61.1362234 51.9559969,60.9298712 Z" id="Shape" fill="#FEFEFE"></path>
                    <path d="M51.9781477,60.8032618 C50.8526536,60.6090342 50.0976609,59.5392669 50.2918885,58.4137728 C50.4858829,57.2878124 51.5561166,56.5325865 52.682077,56.7268141 C53.8080374,56.9212748 54.562797,57.9917417 54.3685694,59.1174689 C54.1736423,60.2431962 53.1041081,60.9979557 51.9781477,60.8032618 L51.9781477,60.8032618 Z" id="Shape" fill="#186FCC"></path>
                    <path d="M52.1350687,59.8934466 C51.5127476,59.7859569 51.0944471,59.1937143 51.2026363,58.5711601 C51.310126,57.9476732 51.9023686,57.5307717 52.5249229,57.6380283 C53.1479434,57.745518 53.5653112,58.3375274 53.4580547,58.9603148 C53.350565,59.5826358 52.7585556,60.0009363 52.1350687,59.8934466 L52.1350687,59.8934466 Z" id="Shape" fill="#EBECEC"></path>
                    <polygon id="Shape" fill="#FEFEFE" points="52.2698388 57.7604406 52.7727787 57.8469454 53.0432517 56.2807668 52.5403118 56.1942621"></polygon>
                    <path d="M36.3690579,61.1772607 C36.7696378,61.0979841 37.1012003,60.8620197 37.3126822,60.545613 C37.5236978,60.2296725 37.615099,59.8328234 37.5358225,59.4327099 L36.4275827,53.8490747 C36.0097485,51.7421833 34.3610291,50.6672863 32.477278,50.4294566 C31.7558612,50.3380554 30.9990032,50.3711651 30.2661612,50.5161945 C29.5326198,50.6614572 28.8212292,50.9198055 28.1891152,51.2793481 C26.5436601,52.2164437 25.4344876,53.8376495 25.8541871,55.9480384 L26.9621937,61.5316736 C27.0414703,61.9322534 27.2781342,62.2635828 27.5938414,62.4752979 C27.9109477,62.6863135 28.3070974,62.7779478 28.707444,62.6984381 L29.6494362,62.5114387 L29.5724913,62.1232167 L28.6300328,62.3099829 C28.3364763,62.3680414 28.0457179,62.3011226 27.8139505,62.1463001 C27.5821831,61.990545 27.4087073,61.7473525 27.3508821,61.4544955 L26.2424091,55.8708603 C25.8625811,53.9556317 26.878487,52.4799217 28.3842754,51.6228021 C28.9795492,51.2833119 29.6503688,51.0401194 30.3435725,50.9027844 C31.0360766,50.7656826 31.7500321,50.7344383 32.429712,50.8204767 C34.1532779,51.0387204 35.6609317,52.014988 36.0400602,53.9262528 L37.1487663,59.5098879 C37.2068247,59.8034444 37.1394396,60.0939697 36.984384,60.3259702 C36.8293284,60.5579708 36.5861358,60.7312134 36.2925794,60.7890387 L35.3501209,60.9758049 L35.4268326,61.3640269 L36.3690579,61.1772607 Z" id="Shape" fill="#186FCC"></path>
                    <path d="M36.7267351,54.676349 L36.5567569,53.8234264 C36.1260986,51.6507821 34.4300464,50.5437082 32.4935996,50.2988835 C31.7577265,50.2060833 30.9873448,50.2394261 30.2405129,50.3874867 C29.4934479,50.5348478 28.7685336,50.798559 28.1247613,51.1648634 C26.4319734,52.12854 25.2924893,53.7970786 25.7243134,55.9732204 L25.8938254,56.8263761 L26.5406289,56.6976683 L26.371117,55.8447457 C26.0041131,53.9955032 26.9894742,52.5673591 28.4488625,51.736121 C29.0317785,51.4040921 29.6893076,51.1657961 30.3685213,51.0314922 C31.0479681,50.8967221 31.7467677,50.8661773 32.4131572,50.9501172 C34.0835611,51.1613659 35.5438821,52.1052234 35.9106528,53.9514347 L36.0801648,54.8043573 L36.7267351,54.676349 L36.7267351,54.676349 Z" id="Shape" fill="#4D4D4D"></path>
                    <g id="Group" transform="translate(28.679464, 60.623257)" fill="#104A87">
                        <path d="M0.222207555,2.12134768 L0.72608009,2.02108613 C0.852689432,2.16331762 1.04831602,2.2362987 1.24837277,2.19689358 C1.54845789,2.13766932 1.74338498,1.84597819 1.68369439,1.5456599 C1.62423696,1.24627427 1.332779,1.05111402 1.03292704,1.11103777 C0.832637123,1.15044289 0.679446815,1.29290755 0.617191393,1.47244566 L0.112852525,1.57224086 L0.222207555,2.12134768 L0.222207555,2.12134768 Z" id="Shape"></path>
                        <path d="M7.14794838,0.746831898 L6.64407584,0.846627106 C6.58158725,1.02616521 6.42839695,1.1683967 6.22857336,1.20826815 C5.92848824,1.26749241 5.63772977,1.07279849 5.57757284,0.772713365 C5.51811542,0.472861408 5.71304251,0.181636606 6.01289447,0.121946014 C6.21201855,0.0823077302 6.4085778,0.155521972 6.53472081,0.297053961 L7.03859335,0.197258753 L7.14794838,0.746831898 L7.14794838,0.746831898 Z" id="Shape"></path>
                    </g>
                    <path d="M30.5471267,50.3366564 L30.3549976,49.3680833 L29.9726048,49.4440955 L29.5911446,49.5194083 L29.7853722,50.4975412 C29.930868,50.4548718 30.0784623,50.4189642 30.2272225,50.3898184 C30.3335463,50.3692997 30.4403365,50.3511127 30.5471267,50.3366564 L30.5471267,50.3366564 Z" id="Shape" fill="#666666"></path>
                    <g id="Group" transform="translate(29.378963, 60.856424)" fill="#0F7986">
                        <path d="M0.428465854,1.49006691 C0.558579145,1.46382281 0.642437328,1.33824979 0.616481224,1.20968692 C0.59085789,1.08045966 0.465736158,0.995747692 0.336621178,1.02199179 C0.206507888,1.04757148 0.122649705,1.17314451 0.148273039,1.30237178 C0.173896372,1.43159905 0.299350875,1.51597881 0.428465854,1.49006691 L0.428465854,1.49006691 Z" id="Shape"></path>
                        <path d="M5.4124237,0.499413345 C5.54182727,0.474144759 5.62632214,0.347801828 5.60004224,0.219464008 C5.57409499,0.0901287448 5.44901597,0.00567846995 5.31994506,0.0309470561 C5.19054149,0.0572130865 5.10604661,0.182226092 5.13199386,0.312226318 C5.15694313,0.440896619 5.28302013,0.525014412 5.4124237,0.499413345 Z" id="Shape"></path>
                    </g>
                    <path d="M52.0739791,59.8829541 C51.4850008,59.7812936 51.090017,59.221228 51.1919107,58.6320165 C51.2931049,58.0430383 51.8531705,57.6478213 52.442382,57.749715 C53.0315934,57.8513755 53.4265772,58.411208 53.3246835,59.0004194 C53.223023,59.5893977 52.6627242,59.9846147 52.0739791,59.8829541 L52.0739791,59.8829541 Z" id="Shape" fill="#FEFEFE"></path>
                    <g id="Group" transform="translate(29.378963, 43.368946)" fill="#4D4D4D">
                        <path d="M5.83149103,0.768283204 C5.81423671,0.768283204 -0.134303832,0.817947642 0.870410076,6.02222112 L0.317339436,6.12807865 C-0.815149645,0.260913173 5.80630906,0.206585408 5.82496237,0.206585408 L5.83149103,0.768283204 Z" id="Shape"></path>
                        <path d="M17.7012917,0.233166375 C18.6721964,0.259281008 20.5484863,0.523691677 21.9922524,2.28060031 C23.4054738,3.99926966 24.3957314,7.15634237 23.6549619,12.9442313 L23.0974611,12.8742814 C23.814914,7.27222605 22.8883108,4.25598583 21.5580967,2.63804436 C20.2586604,1.05740951 18.5647067,0.819113474 17.6884675,0.79556367 L17.7012917,0.233166375 Z" id="Shape"></path>
                    </g>
                    <path d="M55.1235621,51.5705729 C54.2027881,52.8275728 53.87892,54.3398899 54.0999617,55.7675676 C54.3210034,57.194779 55.0862555,58.5382837 56.3434886,59.4590577 C57.6007217,60.3793653 59.1128056,60.7036998 60.5404833,60.4824249 C61.9679279,60.2618495 63.3114325,59.4961311 64.2322065,58.238898 C65.1525142,56.9816649 65.4766155,55.469581 65.2555737,54.0419033 C65.0349983,52.6144587 64.26928,51.2709541 63.0120469,50.3504132 C61.7548138,49.4296392 60.2422635,49.1060043 58.8150521,49.327046 C57.3876076,49.5478546 56.0438698,50.3131066 55.1235621,51.5705729 Z M55.9009388,55.4887006 C55.751246,54.5226923 55.9706555,53.4988588 56.5941424,52.6473352 C57.2176293,51.7958116 58.1272113,51.2774827 59.093686,51.1280231 C60.0596942,50.9787966 61.0835278,51.197973 61.9350514,51.8214599 C62.786575,52.4449468 63.3049038,53.3545288 63.4541303,54.3205371 C63.60359,55.2870117 63.3844136,56.3106121 62.7609267,57.1619025 C62.1374398,58.0134261 61.2278578,58.531755 60.2618495,58.6812146 C59.2958412,58.8304411 58.2720077,58.6112647 57.4202509,57.9877778 C56.5689605,57.3645241 56.0506316,56.4551753 55.9009388,55.4887006 Z" id="Shape" fill="#FFFFFF"></path>
                    <path d="M54.0829406,79.3276308 L54.0834069,79.3276308 C54.8787374,77.9813281 56.4731291,77.9067149 57.9651607,78.3823743 L67.2267623,81.3396234 L66.9966271,79.381259 L65.6589516,74.8480384 L61.438407,65.5386377 L57.214365,56.1390017 C56.5531051,54.6663228 57.164001,52.8926262 58.6212909,52.2763675 C60.0781144,51.6598756 61.7862912,52.2873263 62.4510486,53.7574403 L69.7207098,69.8629413 L70.4353647,69.590603 L68.5793604,65.9047089 C67.8539798,64.4637407 68.5471834,62.6972723 69.9855868,62.0423079 C71.4258555,61.3885094 73.0901971,62.083112 73.816044,63.5233807 L75.8324668,67.5296454 L76.641321,67.2213994 L75.2952515,64.6584346 C74.5458548,63.2309901 75.2453539,61.4127587 76.7014779,60.7967332 C78.1587677,60.1797749 79.7813725,60.8501283 80.5317019,62.2782723 L82.0449517,65.1583434 L83.0144575,64.7885415 L82.3042327,63.2899812 C81.6138271,61.8329245 82.2541019,60.0450048 83.7109254,59.4285129 C85.1684485,58.812021 86.8502775,59.4522958 87.5409163,60.9095857 L89.011963,64.0144291 L89.3122813,64.5210997 L95.8740494,81.8549211 C96.7649781,84.206404 96.6787065,86.5534567 96.1559475,88.1124071 C96.0057884,88.5589207 95.8215869,88.9406141 95.6122035,89.2399997 L103.195474,106.510866 L84.6417256,114.892731 L78.0060438,95.8745157 C73.0153507,95.6443805 59.8386525,86.2167645 55.070167,83.2765365 C53.7313257,82.4497285 53.2873769,80.6725344 54.0829406,79.3276308 L54.0829406,79.3276308 Z" id="Shape" fill="#FED198"></path>
                    <path d="M86.1188346,114.224243 L84.6419588,114.891798 L78.0062769,95.873583 C73.0153507,95.6434478 59.8391189,86.2158318 55.0704002,83.2756038 C54.830472,83.1277763 54.6192232,82.9489377 54.4385193,82.7470157 C61.4353759,86.4524957 73.1934898,94.8695686 78.7202324,94.9474462 L86.1188346,114.224243 L86.1188346,114.224243 Z" id="Shape" fill="#F0B97D"></path>
                    <polygon id="Shape" fill="#FF5B62" points="79.7405684 106.429025 100.94262 97.1618273 105.26226 105.577268 83.2238409 115.533006"></polygon>
                    <g id="Group" transform="translate(54.094599, 52.928767)" fill="#FFFFFF">
                        <polygon id="Shape" points="24.6186385 49.3650521 44.4844136 40.5620888 46.1753361 44.5030669 26.3097942 53.3062634"></polygon>
                        <path d="M44.9675343,48.0826371 C46.0631831,47.6065113 47.334173,48.1033889 47.8079671,49.1918095 C48.2817612,50.279997 47.7774223,51.5486552 46.6829393,52.0245478 C45.5872905,52.4999741 44.3158343,52.0033297 43.8413407,50.9153754 C43.3689457,49.8267216 43.8730514,48.5587628 44.9675343,48.0826371 L44.9675343,48.0826371 Z" id="Shape"></path>
                        <path d="M7.20973747,0.904452367 L8.27880529,3.19950899 L4.75752671,4.791569 L3.68705988,2.49651237 C2.84462977,0.689706136 6.55220829,-0.960878629 7.20973747,0.904452367 Z M2.46340275,26.1836512 L2.46340275,26.1836512 L5.27492289,27.3296639 L3.85284117,30.9656604 L1.04108786,29.8196476 C-0.786470181,29.0742147 0.651000518,25.4442806 2.46340275,26.1836512 Z" id="Shape"></path>
                    </g>
                </g>
                <g id="Group-8" transform="translate(352.000000, 0.000000)">
                    <g id="doctor-(12)-copy" fill-rule="nonzero">
                        <circle id="Oval" fill="#FF5B62" cx="59.1972812" cy="59.1968187" r="59.1968187"></circle>
                        <path d="M50.9461977,57.6778072 C56.4462263,57.6778072 61.9462549,57.6778072 67.4458211,57.6778072 L67.5360045,58.8055617 L59.4726873,71.029569 L50.8109226,58.6848547 L50.9459664,57.678501 L50.9461977,57.6778072 L50.9461977,57.6778072 Z" id="Shape" fill="#B3B3B3"></path>
                        <polygon id="Shape" fill="#F0BA7D" points="51.0525678 54.6115731 50.9096618 61.5069001 39.2112616 67.9039063 39.2112616 91.3527356 58.9045321 91.3527356 78.595259 91.3527356 78.595259 67.9036751 67.7233084 61.1461667 67.1262483 54.2519958 51.052799 54.6113418 51.0525678 54.6113418"></polygon>
                        <path d="M45.6468848,34.5036903 C45.6468848,34.5036903 44.9760593,33.0297705 43.1751671,33.7602557 C41.3738123,34.489816 43.2561008,41.7729315 43.9445005,42.7889973 C44.6322064,43.8046007 45.7396118,43.159674 46.1428933,43.1194384 C46.7163669,47.461189 46.7674708,50.4536578 48.505466,52.2843799 C50.1516591,54.0177503 53.9203986,57.5503943 55.9058199,58.7824378 C57.2504769,59.0663997 58.2535933,59.2331233 59.1972812,59.283071 C60.1405066,59.2331233 61.144548,59.0659372 62.4887425,58.7824378 C64.4739326,57.5510881 68.2433657,54.0177503 69.8890964,52.2843799 C71.6266291,50.4536578 71.6781955,47.4618827 72.2516691,43.1194384 C72.6549506,43.1599053 73.762356,43.8046007 74.4500619,42.7889973 C75.1382303,41.7729315 77.0207501,34.4895847 75.2193953,33.7602557 C73.4180406,33.0295393 72.7476776,34.5036903 72.7476776,34.5036903 C72.7476776,34.5036903 74.5279896,28.7844467 71.3634787,23.154924 C69.1949158,19.2964638 64.2489367,17.2953182 59.1975124,17.1484812 C54.1460882,17.2953182 49.2001091,19.2964638 47.0315462,23.154924 C43.8670353,28.784678 45.6473473,34.5036903 45.6473473,34.5036903 L45.6468848,34.5036903 L45.6468848,34.5036903 Z" id="Shape" fill="#FED298"></path>
                        <path d="M45.1728441,63.535332 L47.9743091,62.4318576 L50.2318992,60.4031946 L58.2031831,66.4489481 L60.1883732,66.4489481 L68.1622007,60.3960261 L73.2203309,63.5360257 L82.009971,78.476402 L75.0489719,116.243111 C70.0030974,117.642572 64.6873666,118.393637 59.1956625,118.393637 C54.716787,118.393637 50.355381,117.893004 46.1611612,116.950704 L33.6846404,79.6700597 L45.1721503,63.5355632 L45.1728441,63.535332 Z" id="Shape" fill="#186FCC"></path>
                        <g id="Group" transform="translate(47.635312, 57.578606)" stroke="#63AEFF" fill="#63AEFF">
                            <polygon id="Shape" points="23.0286673 4.06773193 19.8105089 0.0992016939 12.5539859 8.87057384 18.7826499 15.7915685"></polygon>
                            <polygon id="Shape" points="0.0887959218 3.99789764 3.31111668 0.0992016939 10.5681021 8.87057384 4.09201206 15.7203467"></polygon>
                        </g>
                        <path d="M47.7245706,61.5765032 L26.3941253,68.5129908 C25.5267464,68.7944092 24.9819464,69.5320628 24.8052795,70.4274217 L18.5329113,102.213124 C22.7569611,106.207785 27.5697463,109.584573 32.8265111,112.204978 L35.9447741,102.028364 C35.9810787,101.911588 36.0920736,101.838748 36.2134743,101.853316 C36.3344125,101.867653 36.4264458,101.964542 36.4331517,102.086868 L36.8833748,114.039169 C43.7699147,116.845259 51.3023063,118.393637 59.1977437,118.393637 L59.1977437,114.425107 L47.7250331,61.5767344 L47.7245706,61.5765032 Z" id="Shape" fill="#FFFFFF"></path>
                        <g id="Group" transform="translate(38.616976, 61.509675)" fill="#EEF3F7">
                            <polygon id="Shape" points="9.10759421 0.0668281807 6.66455016 0.817431207 0.192159925 11.8611927 8.36300341 12.1171747 3.34672754 14.9732123 20.5809985 52.9158947 9.10828793 0.0672906595"></polygon>
                            <path d="M32.0470032,0.136662473 L53.3839232,7.00331585 C54.2526895,7.28288426 54.7956396,8.0223878 54.9723065,8.91774668 L61.2449059,40.7039118 C57.0203937,44.6985721 52.2073772,48.075592 46.9503812,50.6962279 L43.8316557,40.5191515 C43.7958136,40.4023757 43.6836625,40.3295353 43.5629555,40.3441033 C43.4420173,40.3584402 43.350909,40.455792 43.3437406,40.5776551 L42.8946737,52.5299562 C36.0081337,55.336046 28.4757422,56.8844249 20.5807673,56.8844249 L20.5803048,56.8844249 L20.5803048,52.9158947 L32.0467719,0.137356192 L32.0470032,0.136662473 Z" id="Shape"></path>
                        </g>
                        <polygon id="Shape" fill="#FFFFFF" points="70.6639796 61.6463375 72.0201985 62.0588685 79.5801076 73.4404708 71.4092641 73.6969153 76.4260024 76.5531841 59.1972812 114.42557 70.6637483 61.6470312 70.6637483 61.6465687 70.6639796 61.6465687"></polygon>
                        <path d="M61.6148889,114.177219 C60.8955032,114.177219 60.3123175,114.759017 60.3123175,115.475859 C60.3123175,116.193857 60.8959657,116.775424 61.6148889,116.775424 C62.3338121,116.775424 62.9174603,116.193626 62.9174603,115.475859 C62.9174603,114.758554 62.3338121,114.177219 61.6148889,114.177219 Z" id="Shape" fill="#D9DADA"></path>
                        <path d="M71.1932865,36.2065371 L72.4484539,36.1626016 L72.852429,34.7303049 L74.034756,33.5505216 C74.8156514,27.6705667 75.0457346,18.5192682 69.2094839,18.7833436 C69.2094839,18.7833436 68.683183,12.1107 58.1560103,13.41859 C47.6281438,14.7269424 42.8715498,21.5230677 43.4383175,27.1930573 C44.0046227,32.8630469 43.7763894,33.5498279 43.7763894,33.5498279 L44.9587164,34.7300737 L45.137002,36.3593863 L46.1694858,36.2941768 C46.1694858,36.2941768 46.4932209,34.1133582 46.8171873,33.1541773 C47.1413849,32.1952276 47.0398708,30.2537418 47.0398708,30.2537418 C47.0398708,30.2537418 59.4745372,31.0459679 62.8349079,26.7715079 C64.9102813,24.1319104 69.6765874,19.5582267 69.9166139,25.8923358 C69.9878356,27.7706933 69.2894927,30.5860328 70.6258251,32.6350449 C71.9626199,34.6842883 71.192824,36.2060746 71.192824,36.2060746 L71.1932865,36.2060746 L71.1932865,36.2065371 Z" id="Shape" fill="#666666"></path>
                        <polygon id="Shape" fill="#104A87" points="59.1972812 114.425107 62.5585768 98.9542677 60.2743942 68.4584184 61.5189246 67.9272615 60.1886044 66.4494106 58.2034143 66.4494106 56.839102 67.8928068 58.1197057 68.4586496 55.8926392 99.2012314 59.1975124 114.425338"></polygon>
                        <path d="M61.499038,114.177219 C60.8439368,114.177219 60.3120862,114.706757 60.3120862,115.360008 C60.3120862,116.013953 60.8437056,116.543954 61.499038,116.543954 C62.1536767,116.543954 62.6859897,116.014184 62.6859897,115.360008 C62.6859897,114.706988 62.1536767,114.177219 61.499038,114.177219 Z" id="Shape" fill="#FFFFFF"></path>
                        <path d="M80.1001649,94.5921681 C77.7900835,94.1932802 76.2407797,91.9969685 76.6392051,89.6875808 C77.0380931,87.3779619 79.2344047,85.8275019 81.5437924,86.2261586 C83.8538738,86.6250465 85.4031776,88.8218206 85.0047522,91.131902 C84.6058642,93.4412897 82.4095526,94.9912873 80.0997024,94.5923993 L80.1001649,94.5921681 L80.1001649,94.5921681 Z" id="Shape" fill="#FEFEFE"></path>
                        <path d="M80.1420193,94.3484418 C77.9665192,93.9726778 76.5073987,91.9053977 76.8831627,89.7292039 C77.2589267,87.5534726 79.3269004,86.0941209 81.502863,86.4694224 C83.6783631,86.8451864 85.1374836,88.9136226 84.7617196,91.0891227 C84.3859556,93.2653165 82.3179818,94.7237433 80.1420193,94.3479793 L80.1420193,94.3484418 Z" id="Shape" fill="#186FCC"></path>
                        <path d="M80.4458678,92.5894038 C79.2424981,92.3819821 78.4350102,91.2366534 78.6424319,90.0330525 C78.8498536,88.8292203 79.9951822,88.0221948 81.1983207,88.2296166 C82.4021529,88.4375008 83.2096409,89.5812107 83.0017567,90.7855054 C82.7943349,91.9888752 81.6494688,92.7963631 80.4458678,92.5889413 L80.4458678,92.5894038 Z" id="Shape" fill="#EBECEC"></path>
                        <polygon id="Shape" fill="#FEFEFE" points="80.7060121 88.4668682 81.6779112 88.6347479 82.2005122 85.6078245 81.2286131 85.4399447"></polygon>
                        <path d="M49.9745298,95.0703711 C50.748488,94.9163657 51.3892523,94.4610554 51.7983148,93.8496584 C52.206221,93.2382615 52.3835816,92.4721655 52.2295762,91.697976 L50.0876058,80.9067279 C49.2789617,76.8346024 46.093408,74.7580728 42.4532377,74.2976752 C41.0584018,74.1212395 39.5960439,74.1855241 38.1792403,74.4660174 C36.7612804,74.7465108 35.3867935,75.2450629 34.1656183,75.9403997 C30.9851519,77.751929 28.8417941,80.8838352 29.6513632,84.9624354 L31.7933336,95.754146 C31.947339,96.5281042 32.4035743,97.168406 33.0145087,97.5774685 C33.6275243,97.9860685 34.3926954,98.1622729 35.1666536,98.0087299 L36.98697,97.6473028 L36.8380519,96.8966997 L35.017273,97.2581269 C34.4498115,97.3707405 33.8876686,97.2407839 33.4397579,96.9420227 C32.9920785,96.6414115 32.6572439,96.1717643 32.5443991,95.6047653 L30.4024287,84.8130547 C29.6677812,81.1120684 31.6316972,78.2594995 34.5418448,76.6031318 C35.6920295,75.9475681 36.9890512,75.4774585 38.3279272,75.2117644 C39.6668032,74.9465329 41.0454524,74.8866419 42.3593545,75.0526717 C45.6912827,75.4737587 48.6048989,77.360672 49.3376965,81.0544898 L51.4801294,91.8462005 C51.5922805,92.4131994 51.4623239,92.9748799 51.1631002,93.4237155 C50.8629515,93.8713949 50.3933043,94.2062296 49.8256116,94.3183807 L48.0043703,94.6798078 L48.1532884,95.4304108 L49.9745298,95.0703711 Z" id="Shape" fill="#186FCC"></path>
                        <path d="M50.665473,82.5059794 L50.3382693,80.8577051 C49.5051138,76.659323 46.2275269,74.5194337 42.4851487,74.0456242 C41.0632578,73.8661825 39.5740762,73.930467 38.13068,74.2169726 C36.6872838,74.5025533 35.2862044,75.0112799 34.0419053,75.7193349 C30.770793,77.5821993 28.5675442,80.8070637 29.4023184,85.0128455 L29.7299846,86.6611198 L30.9800647,86.4123063 L30.6528609,84.764032 C29.9436498,81.1895336 31.847906,78.4296916 34.6674078,76.8241966 C35.7944685,76.1827386 37.0653602,75.722341 38.3781061,75.4619654 C39.6903896,75.2013587 41.0419838,75.1428551 42.3292934,75.3054164 C45.5576264,75.7133227 48.3801343,77.5368764 49.088883,81.1053625 L49.4160867,82.7536368 L50.6666292,82.5052857 L50.665473,82.5059794 Z" id="Shape" fill="#4D4D4D"></path>
                        <g id="Group" transform="translate(35.148386, 94.114428)" fill="#104A87">
                            <path d="M0.394031903,3.98541071 L1.36847465,3.79186335 C1.61312591,4.06634449 1.99166478,4.20716927 2.37737206,4.13086028 C2.95708919,4.01570307 3.33377814,3.45286642 3.21862093,2.87268681 C3.10392619,2.29343217 2.54062706,1.91674322 1.96090994,2.03190043 C1.5742777,2.10820942 1.27875377,2.38361553 1.15804681,2.7304746 L0.184297786,2.92355948 L0.394725621,3.98494823 L0.394031903,3.98541071 Z" id="Shape"></path>
                            <path d="M13.7790922,1.32870148 L12.8058056,1.52224884 C12.6848674,1.86887667 12.3893435,2.14382029 12.003405,2.220823 C11.4236878,2.33551773 10.8608512,1.95929126 10.745694,1.37911166 C10.6309992,0.799857014 11.0072257,0.236557885 11.5864804,0.121863153 C11.9724189,0.0455541578 12.3514202,0.187072658 12.5949153,0.460860084 L13.5686643,0.267312723 L13.7790922,1.32870148 Z" id="Shape"></path>
                        </g>
                        <path d="M38.722884,74.1196208 L38.3512824,72.2475068 L37.6124725,72.3943438 L36.8745877,72.5407184 L37.2503517,74.4313315 C37.53177,74.3492416 37.8166569,74.2794073 38.1043187,74.2222911 C38.309428,74.1813618 38.5152311,74.1478321 38.722884,74.1196208 Z" id="Shape" fill="#666666"></path>
                        <g id="Group" transform="translate(36.535822, 94.345667)" fill="#0F7986">
                            <path d="M0.593360248,2.71243792 C0.768639698,2.67775202 0.882640712,2.50663488 0.847723566,2.33204914 C0.813037659,2.15653845 0.643307954,2.0423062 0.467334786,2.07699211 C0.291824097,2.11167802 0.178054322,2.28233268 0.212971469,2.45738089 C0.247888615,2.6324291 0.417849559,2.74712383 0.593360248,2.71174421 L0.593360248,2.71243792 Z" id="Shape"></path>
                            <path d="M10.2251741,0.796850902 C10.4002223,0.762164995 10.5137609,0.591510333 10.479075,0.416924602 C10.4443891,0.240951434 10.2746594,0.127181659 10.0986862,0.161867566 C9.9231755,0.196553473 9.80940573,0.367208135 9.84432287,0.542718824 C9.8785463,0.717998274 10.049201,0.831768049 10.2251741,0.796850902 Z" id="Shape"></path>
                        </g>
                        <path d="M80.3277045,92.5690548 C79.189313,92.3727325 78.4259918,91.290301 78.6220828,90.1512158 C78.818405,89.0132868 79.9001429,88.2495031 81.0387656,88.4462879 C82.177157,88.6426101 82.9409407,89.7250416 82.7443872,90.8629706 C82.5476025,92.0013621 81.465171,92.7651457 80.327242,92.5690548 L80.3277045,92.5690548 Z" id="Shape" fill="#FEFEFE"></path>
                        <g id="Group" transform="translate(36.767061, 61.047196)" fill="#4D4D4D">
                            <path d="M10.967915,1.09075615 C10.9353103,1.09121863 -0.561680453,1.18648926 1.38026786,11.2449398 L0.311016966,11.4493554 C-1.87812624,0.109838705 10.9188923,0.00531850573 10.9551969,0.00485602697 L10.967915,1.09075615 Z" id="Shape"></path>
                            <path d="M33.9096364,0.0561911693 C35.7854502,0.106832593 39.4112837,0.618102862 42.202343,4.01292819 C44.9335113,7.33514436 46.8481734,13.4363954 45.4165704,24.6228316 L44.3387636,24.4866316 C45.7245812,13.6595414 43.9338635,7.82999664 41.363869,4.70317774 C38.8528406,1.6482743 35.5787222,1.18787669 33.8848937,1.14232254 L33.9103301,0.0561911693 L33.9096364,0.0561911693 Z" id="Shape"></path>
                        </g>
                    </g>
                    <g id="Group-4" transform="translate(81.455459, 67.048321)">
                        <path d="M22.7101406,0 C28.98304,0 34.6584468,2.54243982 38.769692,6.65368498 C42.8786153,10.7626083 45.423377,16.4403369 45.423377,22.7132364 C45.423377,28.98304 42.8793892,34.6615426 38.769692,38.7712399 C34.6607687,42.8801632 28.98304,45.423377 22.7101406,45.423377 C16.4403369,45.423377 10.7618343,42.8809371 6.65213708,38.7712399 C2.54243982,34.6615426 0,28.98304 0,22.7132364 C0,16.4403369 2.54243982,10.7649301 6.65213708,6.65368498 C10.7618343,2.54243982 16.4403369,0 22.7101406,0 Z" id="Shape" fill="#63AEFF" fill-rule="nonzero"></path>
                        <path d="M36.6328042,8.78979881 L36.6328042,8.78979881 C33.0695187,5.22806119 28.1463955,3.02383939 22.7101406,3.02383939 C17.2731117,3.02383939 12.3523104,5.22883515 8.78902485,8.78979881 C5.22573933,12.3530843 3.02306544,17.2762075 3.02306544,22.7124624 C3.02306544,28.1471694 5.22573933,33.0702926 8.78902485,36.6335781 C12.3523104,40.1968637 17.2754336,42.3995376 22.7101406,42.3995376 C28.1471694,42.3995376 33.0702926,40.1968637 36.6328042,36.6335781 C40.1945418,33.0702926 42.3987636,28.1471694 42.3987636,22.7124624 C42.3995376,17.2754336 40.1945418,12.3523104 36.6328042,8.78979881 Z" id="Path" fill="#FFFFFF"></path>
                        <path d="M10.4364138,23.2270368 C9.86833138,22.5498268 9.95501426,21.5429123 10.6329982,20.972508 C11.3071124,20.4044255 12.3171227,20.4911084 12.8852052,21.1667705 L18.5520985,27.9071384 L34.0435674,14.3273365 C34.7091681,13.7453229 35.7207263,13.8118829 36.3042879,14.4790315 C36.8863015,15.1446322 36.8197414,16.1561905 36.1525928,16.7382041 L19.4344063,31.3930285 L19.4328584,31.3914805 L19.4088658,31.4139252 C18.7332038,31.9820077 17.7247413,31.8937769 17.1566589,31.2173408 L10.4387357,23.2262628 L10.4364138,23.2262628 L10.4364138,23.2270368 Z" id="Shape" fill="#63AEFF" fill-rule="nonzero"></path>
                    </g>
                </g>
            </g>
        </g>
    </g>
</svg>